<?xml version="1.0" encoding="UTF-8"?>
<svg id="Layer_1" data-name="Layer 1" xmlns="http://www.w3.org/2000/svg" viewBox="0 0 904.93 949.4">
  <defs>
    <style>
      .cls-1 {
        fill: #f8ccd7;
      }

      .cls-2 {
        fill: #fde6d6;
      }

      .cls-3 {
        fill: #f4dccd;
      }

      .cls-4 {
        fill: #fce7d5;
      }

      .cls-5 {
        fill: #fae9d9;
      }

      .cls-6 {
        fill: #fde6d4;
      }

      .cls-7 {
        fill: #636363;
      }

      .cls-8 {
        fill: #7b7772;
      }

      .cls-9 {
        fill: #fefefe;
      }

      .cls-10 {
        fill: #fde6d5;
      }

      .cls-11 {
        fill: #f4dacb;
      }

      .cls-12 {
        fill: #f4dbcc;
      }

      .cls-13 {
        fill: #6e6965;
      }
    </style>
  </defs>
  <path class="cls-9" d="M821.33,949.4c-.66-5.11-1.21-10.24-1.92-15.35-1.5-10.93-4.84-21.16-7.95-31.71-3.18-10.79-5.95-21.83-10.28-32.23-2.98-7.15-6.06-14.12-7.72-21.6-2.07-.73-3.72-2.39-4.33-4.95-1.23-.22-2.19-.83-2.86-1.65-.26-.07-.53-.14-.79-.21-2.45-.66-3.87-3.06-3.58-5.49.12-.99.49-1.8,1.03-2.45-1.88-3.44-3.43-7.05-4.56-10.81-.28-.92-.28-1.79-.08-2.56-3.87-7.22-7.49-14.55-10.3-22.27-1.26-2.01-2.52-4.02-3.77-6.04-2.14.95-4.99.56-6.58-1.79-5.41-7.97-9.2-15.71-9.54-25.01-.78-1.75-1.48-3.55-2.05-5.42-.32-1.06-.25-2.05.09-2.92-1.19.02-2.4-.16-3.63-.63-5.79-2.24-9.87-10.35-11.86-15.83-1.34-3.71,1.94-6.21,5.14-6.09.19-.13.4-.24.61-.35-2.25-4.93-4.47-9.87-6.62-14.8-2.32-5.31-11.74-25.46-11.84-29.68-1.58-1.86-2.58-4.75-2.99-7.17-3.74-4.83-11.24-28.29-13.76-35.52-16.87-48.45-30.96-101.8-36.41-152.95-3.6-33.79-.81-67.33-3.59-100.94-3.97-47.83-15.76-99.33-42.96-139.28,1.86-2.67,4.18-4.86,6.06-7.55,2.83-4.04,3.96-8.23,7.63-11.18-1.28-3.76,2.35-7.12,2.41-10.91.28-.69.99-.33,1.17-.44,2.49-15.05,3.5-30.58-3.48-44.61-7.23-14.53-25.05-25.77-40.61-29.29-30.29-6.84-51.83,15.31-63.79,40.37-51.38-15.94-109.21-22.77-160.35-2.32-1.06-37.87-43.91-58.8-74.86-36.33-7.63,5.54-14.24,13.2-18.25,21.78-.62,1.34-1.98,6.37-2.47,6.78l-.6,1.19c.06.34,0,.82,0,1.19-.03,1.24-.59,2.19-.6,2.39-.46,11.17.68,20.5,5.46,30.68,2.2,4.69,5.89,8.92,7.58,13.68-16.41,22.79-26.99,49.67-33.65,76.91-2.76,11.27-5.45,24.07-6.87,35.57-.12,1.01.63,2.29-1.19,2.07.15.2-.07,2.29,0,2.99.02.2,0,.4,0,.6.11,2.56,0,3.84-.6,6.57-.18.8-.37,1.61-.6,2.39,1.41.53.09,1.48,0,1.79-.79,2.81-.31,4.63-.6,7.17-.13,1.16-.54,2.42-.6,2.99-5,52.31-3.84,106.56-3.61,159.23.11,26.18,3.07,53.44-3.56,79.12,1.41.42.88-1.41,2.06-1.22,1.34.22,5.96,4.28,7.14,5.46,8.12,8.11,14.46,19.36,19.05,28.76,14.89,30.51,18.27,63.12,28.55,94.38,12.16,36.97,30.06,74.98,49.58,108.85,8.83,15.32,18.14,30.01,28.99,44.77,1.34,1.82,5.51,9.26,7.37,9.69,3.06.7,6.38-2.83,7.17,2.96.41,3-.72,5.66,1.42,8.44,11.51,14.98,29.09,29.53,44.93,39.03.8.48,1.75.49,1.47,1.78h391.3ZM710.45,831.98c1.24-4.98,8.19-4.53,9.64,0,1.56,4.86,2.63,9.86,3.67,14.88.75.23,1.48.61,2.15,1.13,1.45,1.13,2.72,2.41,3.88,3.77.98.51,1.73,1.36,1.98,2.58,1.73,2.52,3.16,5.26,4.49,8.07.99-5.72,2.17-11.47,4.12-16.94,1.74-4.89,4.28-11.09,9.7-12.84,6.22-2.01,10.92,3.23,13.95,7.93,3.49,5.43-5.17,10.44-8.63,5.05-.48-.75-1.82-2.31-2.57-3.08-.1.13-.2.26-.26.36-2.46,3.66-3.58,8.15-4.62,12.38-2.09,8.48-2.98,16.92-4.29,25.15-.71,4.46-7.1,4.55-9.14,1.19-1.26-2.08-2.34-4.33-3.38-6.63-1.26,3.75-7.04,5.67-9.06,1.3-.86-1.86-1.61-3.75-2.3-5.65-2.12,2.25-6.42,1.8-7.92-1.01-5.78-10.78-4.25-26.18-1.39-37.63ZM681.83,717c1.54.05,2.57.66,3.54,1.83.38.46,3.91,7.02,3.91,7.44,0,1.58.29,10.02,0,10.45-.1.15-3.08,1.17-3.29,1.17-3.31-.09-2.35-3.07-2.96-4.78-1.5-4.2-4.29-8.02-5.77-12.25,1.93-2.17.56-4,4.56-3.88ZM274.73,447.21c-.31,1.29-3.43,1.1-4.47-.24-1.63-2.09-3.7-9.99-3.94-12.78-.18-2.03-.32-13.02.11-14.28.53-1.56,4.52-1.91,5.81-.89.35,2.62-.16,5.34.09,7.96.49,5.01,3.43,15.99,2.4,20.22ZM293.96,529.28c-.37,2.59-1.13,19.56-7.09,12.5-2.52-2.98-1.23-18.19,1.41-18.91,1.67-.46,5.05-.03,6.08,1.56,1.61,2.49-.16,3.18-.4,4.85ZM298.61,214.03c-4.1-12.93-5.85-34.79,8.73-41.74,13.95-6.65,26.96,1.08,35.45,12.19,1.4,1.84,4.83,5.51,2.36,7.11-4.03,2.61-10.62,4.79-15.11,6.99-9.95,4.87-19.9,9.85-29.61,15.2l-1.82.26ZM317.06,677.25c-.3,2.31-1.29,2.74-3.71,2.15-.44-.11-2.51-5.43-2.74-6.34-.92-3.61-2.02-10.6-2.37-14.35-.19-2.06-.56-6.03,2.14-6.71,4.28-1.08,4.53,8.9,5.14,11.7.04.16.91-.03,1.05,1.02.27,2.06.73,10.65.49,12.54ZM328.65,446.89c.99-3.56,5.28-11.76,8.81-5.59,1.55,2.71-.04,3.82-.89,6.05-.07.18-.74.23-.88.7-.85,2.89-.36,11.56-4,11.94-5.14.54-3.93-9.85-3.02-13.1ZM339.17,544.03c-.44,3.48-2.44,10.88-7.11,7.2-1.85-1.46-1.38-7.57-1.14-10.08.18-1.95,1.8-10.33,2.66-11.68.83-1.31,2.79-2.19,4.3-1.65.12.04,1.34,1.54,1.39,1.89.38,3.04.3,11.23-.09,14.31ZM341.55,322.99c-12.46,8.59-28.4-3.61-23.27-17.89,3.58-9.98,17.65-12.62,24.91-5.42,6.38,6.32,5.86,18.14-1.65,23.32ZM361.32,263.61c-1.36,1.34-4.12-2.04-4.93-2.57-10.17-6.65-16.24-7.06-26.93-.92-1.44.83-2.7,2.79-4.42,3.34-3.33,1.06-1.71-1.94-.54-3.23,6.83-7.53,20.48-8.77,29.25-4.29,1.37.7,9.54,5.71,7.57,7.66ZM377.37,814.31c-.32.2-3.38.21-3.5.09-.18-.18.19-2.35,0-3.18-.28-1.19-2.03-5.22-2.35-7.31-.23-1.53-.89-7.72-.34-8.64,1.29-2.13,4.37-.78,4.95,1.63.73,3,1.89,10.59,1.97,13.61.02.78-.25,3.5-.73,3.8ZM378.33,634c-4.46.46-4.35-5.65-4.49-8.65-.12-2.56-.17-5.88,0-8.41.21-3.22.08-8.37,4.01-8.49,5.17-.16,2.37,9.85,3.81,13.27-.8,3.01.67,11.86-3.34,12.28ZM440.63,908.02c-2.81,3.29-6.01-4.37-6.72-6.41-.37-1.04-.16-2.18-.45-3.13-.95-3.12-4.55-8.88.13-10.34,2.73-.85,5.01-.35,5.85,2.57.73,2.54,1.83,8.61,1.94,11.21.06,1.39.09,5.14-.74,6.11ZM426.48,675.47c-.13-1.9-2.23-3.26.12-5.49,1.15-1.09,3.6-.96,4.96-.18,3.37,1.93,3.96,11.17,3.11,14.52-.26,1.01-4.06,5.77-4.94,5.85-1.33.13-3.02-.71-3.28-2.12-.62-3.42.29-8.81.04-12.58ZM523.95,563.62c-.1-4.23,5.05-5.55,7.26-1.25,1.17,2.27,4.59,12.25,5,14.71.17,1.02.37,6.33.07,6.66-.09.1-2.22.57-2.63.56-3.06-.09-3.41-1.99-4.47-4.38-1.26-2.84-5.18-13.69-5.24-16.3ZM530.51,432.2c.13-.24,2.16-1.24,2.6-1.31,5.72-.9,5.22,6.51,5.79,10.28.19,1.23.89,2.29,1.04,3.74.17,1.63.21,13.32-.14,13.92-1.03,1.76-4.07,2.15-5.68.56-1.82-1.8-3.54-14.36-3.74-17.46-.1-1.49-.24-9.07.12-9.72ZM537.47,863.59c-.37,1.12-2.48,1.36-3.38.85-.3-.17-1.05-2.05-1.27-2.6-1.79-4.51-3.2-14.24-3.08-19.08.1-4.02,2.2-4.48,5.12-2.08.49,5.82,4.37,17.59,2.61,22.91ZM578.2,480.79c-.38,3.28-5.26,2.23-5.87,1.33-.11-.16-1.19-3.38-1.28-3.79-.69-3.19-1.67-10.67-1.26-13.72.56-4.26,6.3-3.22,7.07.15.72,3.14,1.7,12.98,1.35,16.03ZM611.34,825.18c-3.03-.36-3.21-3.75-5.68-5.24-.18-1.11.2-2.37-.04-3.44-.98-4.45-3.05-7.06-2.39-12.01.57-4.3,6.21-5.97,9.45-3.11l2.5,8.55c-.38,3.59,1.94,15.93-3.84,15.24ZM635.71,754.81c.6-1.86,4.18-1.46,5.49-.17,2.34,7.91,4.87,15.76,3.84,24.17-.06.47-1.33,5.44-1.46,5.71-1.24,2.59-3.8,1.26-4.33-1.64-.88-4.81-.59-11.53-1.4-16.52-.56-3.39-3.09-8.56-2.13-11.55ZM626.84,496c3.04,7.48,6.24,15.02,5.69,23.29-5.8.75-4.82-.67-6.81-4.56-2.06-4.01-4.33-9.07-4.98-13.82-.77-5.65.62-6.79,6.1-4.91ZM612.06,634.09c1.92-.56,2.96.24,3.99,1.74.99,1.44,4.55,12.76,4.87,14.85.4,2.6,1.28,8.57-2.53,8.9-1.03.09-2.52-1.85-3.03-2.75-1.55-2.74-4.22-11.61-4.87-14.84-.48-2.43-1.67-6.95,1.56-7.89ZM608.03,321.74c.34.57,1.2.35,1.2.41v10.75c-1.86-.09-4.65.5-6.01-1.03-3.12-3.51-6.86-20.4,1.96-16.14,2.22,1.07,1.5,3.76,2.84,6ZM561.16,181.2c7.48-6.34,15.62-9.16,25.39-6.9,24.45,5.66,17.6,36.94,11.33,54.08l-47.52-31.05c-1.82-2.81,8.36-14.04,10.81-16.12ZM546.53,711.32c.04,1.65-.29,9.58-1.17,10.22-.79.57-2.62.44-3.35-.32-1.54-1.59-2.8-10.54-3.44-13.29-.83-3.56-3.18-7.02-2.09-10.8.81-2.82,5.64-2.81,6.87-.86.44.7.55,2.99.93,4.16,1.22,3.76,2.15,6.7,2.25,10.88ZM538.79,322.49c-13.1,10.12-30.69-4.04-23.47-18.68,4.38-8.87,17.34-10.9,24.4-4.15,5.94,5.68,5.72,17.69-.93,22.82ZM508.2,265.63c9.77-6.41,20.91-6.24,30.14,1.08.93.74,5.12,3.96,2.46,4.67-1.92.51-4.23-2.72-5.8-3.73-7.05-4.51-13.52-5.25-21.35-1.93-2.04.86-9.17,6.65-10.16,5.66-1.66-1.65,3.64-5.05,4.7-5.75ZM459.89,200c.32-1.05,6.74-2.78,7.2,2.35.29,3.19.28,11.25,0,14.4-.67,7.46-7.2,2.39-7.2-.03,0-3.29-.66-14.58,0-16.73ZM464.53,496.73c-.2,1.8.96,2.99,1.31,4.37,1.1,4.24,3.08,12.11,3.55,16.76.16,1.6.33,9.67-.2,10.43-.68.98-3.89.78-4.87.02-1.06-.82-4.02-10.07-4.27-11.86-.28-2.01.06-3.94-.16-5.81-.56-4.62-4.46-18.96,4.64-13.91ZM438.98,207.76c0-.24.62-4.33.71-4.66.87-3.16,5.86-1.18,5.86,1.08,0,2.01.37,13.44,0,14.04-.14.22-3.18,1.3-3.9,1.27-.92-.04-.77-.8-1.38-1.22-.33-.23-1.3.02-1.3-.05v-10.45ZM414.82,196.74c5.17-4.16,7.7-.9,6.8,5.01-.18,1.21-2.3,10.98-2.54,11.53-1.25,2.78-1.66,5.75-2.83,8.79-1.85,4.83-6.6,4.38-7.17.06-1.12-8.48,3.52-17.44,5.73-25.39ZM406.11,398.33c0-1.13.99-1.77,2.05-1.44.33.1,2.92,3.61,4.95,4.61,4.18,2.06,11.13,1.17,12.05-3.92.28-1.55-2.96-13.07-3.41-16.07-2.56-17.07-2.48-37.56-1.9-54.9.19-5.71,2-12.46.63-17.91-6.51-3.26-24.63-14.44-18.53-23.29,6.56-9.51,30.14-10.8,40.01-7.15,7.47,2.76,8.63,6.92,4.9,13.83-4.33,8.03-14.2,14.74-22.67,17.66-.38,1-.63,2.08-.73,3.15-2.08,21.92-2.25,48.08,1.29,69.79.56,3.44,1.94,12.81,4.05,15.07,3.8,4.07,10.6,5.48,15.26,2.06.95-.7,6.55-7.31,5.67-2.7-.96,5.06-9.62,8.09-14.36,7.21-2.74-.51-7.05-3.93-8.05-3.9-1.11.03-4.66,5.49-9.51,5.39-2.9-.06-11.68-4.56-11.7-7.48ZM425.39,795.43c-.34-1.32-1.22-6.2-1.34-7.62-.22-2.45-.52-14.07,1.32-15.11.52-.29,4.1-.31,4.55-.03,1.87,1.13.89,7.31,1.31,9.04.11.46,1.07.37,1.17.82.94,4.13,1.25,10.47-.36,14.47-1.55,3.85-5.83,1.55-6.65-1.58Z"/>
  <path class="cls-9" d="M100.28,949.4c-2.8-25.49-4.02-51.13-5.38-76.76-3.26-61.48-5.75-125.63,2.48-186.9,3.07-22.83,14.09-81.88,42.78-85.65,4.19-.55,6.63.56,10.3,2.23,1.36-17.37,2.84-36.06,7.8-52.83,1.64-5.54,6.63-20.06,13.49-20.47,7.48-.45,8.94,20.01,9.2,25.19.67,13.33-.16,27.62-.62,40.95,10.61-4.94,22.03,3.06,27.58,11.87,13.41-3.01,24.8,9.81,29.17,20.99.18.47.49.89.6,1.19,2.45,6.82,4.34,15.01,6.28,22.1,18.2,66.48,33.26,132.92,56.43,198.05,12.33,34.64,26.43,70.03,47.8,100.05H100.28ZM208.23,662.78c-3.36,1.02-3.14,6.28-2.78,9.11.16,1.23.99,5.14,1.32,6.45,1.47,5.86,7.2,6.46,8.17.12.31-2.07-.7-10.16-1.17-12.49s-3.23-3.88-5.53-3.19ZM191.27,684c-.45-1.29-.63-5.91-2.84-2.18-1.21,2.05-1.35,15.36-.98,18.21.13,1.01.88.73,1.18,1.34.6,1.21.04,3.36,2.74,3.15,2.85-.23.94-5.05.88-6.89-.12-3.87.55-9.01.07-12.61-.14-1.05-.98-.84-1.05-1.02ZM125.88,700.98c-.74-.47-3.01-.12-3.85.47-.56.39-2.47,4.97-2.61,5.76-.65,3.84-1.08,14.21.16,17.7s2.56,2.14,5.78,2.28c.14-3.47-.19-7.01-.03-10.48.11-2.4,1.91-14.86.54-15.72ZM154.04,734.34v12.84c0,1.31,2.43,5.17,4.7,3.8,1.54-.93-2.03-14.08-1.11-16.65h-3.59ZM230.44,756.54c-.98-.89-5.15.59-5.27,2.54-.05.87,2.5,9.89,3,10.74,1.57,2.66,5.16,4.43,5.87.03.55-3.39-1.09-5.5-1.34-8.75-.51-.51-2.08-4.39-2.26-4.57ZM178.24,827.54c-.57.12-1.35,1.42-1.49,2.1-.43,2.24-.38,13.11-.05,15.55.21,1.55,1.7,6.89,3.89,6.24,1.4-.42,1.05-8.17.89-9.82-.11-1.09-1.02-1.96-1.13-3.05-.16-1.65.7-11.62-2.11-11.02ZM248.19,868.36c.51,1.2.24,2.83,1.85,3.29,5.26,1.52,4.6-11.07,4.35-13.95-.36-4.13-4.25-17.67-6.13-21.35-2.18-4.26-6.73-3.99-6.4,1.61.26,4.34,2.27,8.72,2.96,12.59,1.14,6.43.78,11.73,3.38,17.8ZM134.79,846.77c-1.63-2.38-8.96-1.09-9.44.89-.31,1.29-.25,12.66.04,14.19.06.33,2.7,5.17,2.93,5.43,1.36,1.55,7.04,1.7,6.93-1.49l-.46-19.03ZM187.31,934.89c1.49-1.84.67-12.29.06-14.94-1.13-4.84-7.62-3.96-8.24-.73-.54,2.81.98,12.47,2.23,15.07,1.15,2.4,4.31,2.63,5.96.59Z"/>
  <path class="cls-4" d="M232.29,606.51c1.41.42.88-1.41,2.06-1.22,1.34.22,5.96,4.28,7.14,5.46,8.12,8.11,14.46,19.36,19.05,28.76,14.89,30.51,18.27,63.12,28.55,94.38,12.16,36.97,30.06,74.98,49.58,108.85,8.83,15.32,18.14,30.01,28.99,44.77,1.34,1.82,5.51,9.26,7.37,9.69,3.06.7,6.38-2.83,7.17,2.96.41,3-.72,5.66,1.42,8.44,11.51,14.98,29.09,29.53,44.93,39.03.8.48,1.75.49,1.47,1.78h-78.85c-4.43-6.83-9.18-13.42-13.25-20.51-33.63-58.63-54.94-139.66-72.61-205.17-7.84-29.06-14.03-64.19-24.03-91.86-.43-1.18-3.8-8.99-4.17-9.42-.56-.64-1.73-.4-2.19-.97-.35-.44.34-1.66-.08-2.82-.56-1.53-4.72-5.85-4.77-6.46-.03-.31,1.83-4.18,2.22-5.68Z"/>
  <path class="cls-13" d="M239.46,349.64c1.59,1.25-.65,4.72,1.79,4.18-.18.8-.37,1.61-.6,2.39-.09.33-1.41,1.27,0,1.79-.79,2.81-.31,4.63-.6,7.17-1.74-.58-1.64,1.98-.6,2.99-5,52.31-3.84,106.56-3.61,159.23.11,26.18,3.07,53.44-3.56,79.12-.39,1.5-2.24,5.38-2.22,5.68.05.61,4.21,4.93,4.77,6.46.42,1.15-.27,2.38.08,2.82.46.57,1.63.33,2.19.97.37.43,3.74,8.24,4.17,9.42,10.01,27.67,16.19,62.8,24.03,91.86,17.67,65.51,38.98,146.54,72.61,205.17,4.06,7.08,8.82,13.67,13.25,20.51h-2.99c-21.37-30.02-35.47-65.41-47.8-100.05-23.18-65.13-38.23-131.56-56.43-198.05-1.94-7.08-3.83-15.28-6.28-22.1l1.19-.3-1.79-.9c-4.37-11.17-15.76-23.99-29.17-20.99-5.55-8.81-16.97-16.81-27.58-11.87.46-13.32,1.3-27.61.62-40.95-.26-5.18-1.72-25.63-9.2-25.19-6.87.41-11.85,14.93-13.49,20.47-4.97,16.76-6.44,35.46-7.8,52.83-3.67-1.67-6.11-2.78-10.3-2.23-28.69,3.77-39.71,62.82-42.78,85.65-8.23,61.27-5.74,125.41-2.48,186.9,1.36,25.62,2.58,51.26,5.38,76.76h-2.99c-.09-5.49-1.29-11.11-1.78-16.44-.75-8.18-.63-16.31-1.18-24.51-4.87-72.82-8.69-145.89-.04-218.63.96-8.05,3.68-19.47,3.08-26.91-.02-.26,1.15-.22,1.47-1.39.4-1.49.04-3.03.39-4.41,2.75-10.75,7.16-25.43,12.41-35.08,4.51-8.29,14.68-20.3,22.99-23.76,1.59-.66,8.28-1.18,10.19-1.05.99.07,2,1.27,3.26.92,1.15-14.57,2.59-30.75,6.14-44.94,1.48-5.92,7.86-23.62,13.47-26.11.52-.23,5.86-1.16,6.42-1.15.32,0,.24.85.69,1.1.83.46,2.87,1.24,3.35,1.76.38.4,4.15,9.26,4.36,10.18.89,3.95,1.27,14.34,1.44,18.82.42,11.04-.2,22.19-.62,33.18h8.66c3.32,0,14.58,8.83,16.86,11.55.3.35.04,1.33.22,1.5.35.34,4.87-.03,6.15.15,1.36.19,3.49.73,4.8,1.17,3.5,1.19,5.89,4.07,9.3,4.74.38-7.73,2.76-15.27,3.58-23,2.4-22.58.15-45.46-.02-68.07-.44-58.03.29-111.94,6.6-169.38Z"/>
  <path class="cls-13" d="M737.24,733.69c.55-.17,1.06-.42,1.56-.7-6.48-14.2-12.63-28.54-18.44-43.02l-2.4-1.03c-.04.16,0,.4,0,.6.1,4.22,9.52,24.36,11.84,29.68,2.15,4.93,4.37,9.87,6.62,14.8.25-.13.52-.24.82-.33Z"/>
  <path class="cls-6" d="M321.3,20.49c21.24-7.22,43.78-12.02,65.97-15.57,6.92-1.11,15.28-1.32,22.04-2.95.46-.11.38-1.19.74-1.2,10.03-.53,20.76-.28,31.01-.59,82.18-2.47,166.43,22.05,233.88,68.11,1.29.88,2.77,2.01,4.18,2.99s3.5,1.91,4.18,2.39c.05.04-.07.77.21.96,2.13,1.49,8.46,6.71,10.54,6.8.06.31-.14.63.13,1.05.42.67,10.64,8.35,12.41,9.7.44.34.97.43,1.19.6.64.49,1.16,1.56,2.39,2.39.65.44.94.8,1.79,1.19.5,1.09,1.17,1.72,2.39,1.79,1.98,3.76,13.9,12.94,17.92,16.73.2.19.39.4.6.6,3.4,3.2,6.9,6.73,9.56,9.86,10.54,12.36,21.59,24.34,31.31,37.39,13.1,17.58,24.82,36.97,34.96,55.96.87,1.62,2.3,8.11,4.82,7.9,0,.6-.01,1.2,0,1.79.08,3.68,2.91,5.56,4.18,8.36.56,1.23,1.05,3.69,1.79,5.38.47,1.07,1.15,1.69,1.19,1.79,1.36,3.13,2.35,6.39,3.58,9.56.69,1.76,1.8,3.79,2.39,5.38.43,1.17.77,2.41,1.19,3.58.22.6.28,1.49.6,2.39.17.49.49.88.6,1.19,2.16,6.11,4.71,13.02,6.57,19.12.39,1.27.88,2.54,1.19,3.58.2.67.34,1.51.6,2.39.23.77.29,1.88.6,2.99,1.33,4.75,3.08,10.25,4.18,14.93.45,1.91.77,4.02,1.19,5.97.5,2.3,1.46,5.45,1.79,7.17.24,1.22-.23,2.95,0,4.18.34,1.82.83,3.78,1.79,5.38-.06,1.13-.08,2.47,0,3.58.12,1.62.95,3.85,1.19,5.38.18,1.1.46,2.12.6,2.99.27,1.64-.88,4.07,1.19,3.58-.16.88-.57,2.28-.6,2.99-.07,1.68.34,3.68.6,5.38.07.48-.12,1.66,0,1.79l.6,1.19c-.16,2.49.42,5.19.6,7.77.09,1.34.57,2.96.6,3.58.07,1.39-.07,2.8,0,4.18,3.38,67.6-6.13,130.95-33.8,192.9-2.31,5.16-9.77,17.29-10.76,21.56-.27,1.17.43,2.31.09,2.99-.21.42-2.93,2.94-4.04,4.95-19.43,34.95-45.1,69.15-74.24,96.61-1.56,1.47-3.09.93-3.89,4.17-1.15-2.22-2.82-5.9-3.43-8.22-.44-1.69.14-4.16-.84-5.73-.76-1.21-2.16-.92-2.61-1.57-.79-1.13-1.42-7.25-1.6-7.64-.34-.72-3.41-3.87-3.47-4.15-.18-.83.19-1.85,0-2.76-.09-.45-.97-.34-1.06-.69-.24-1.03.5-2.85-.09-4.77-.74-2.41-3.36-4.34-3.53-4.88-.38-1.14.16-2.7-.2-3.98-.27-.93-1.6-1.49-2.12-2.66-1.06-2.38-.38-7.63-3.74-8.51-.12-.53-.61-1.04-.6-1.79,0-.1.81-.63.59-1.19-.35-.07-1.09.1-1.19,0-.51-.52-3.71-11.87-4.35-13.87-15.24-47.07-26.8-97.17-30.3-146.52-1.94-27.32-.27-55.15-2.39-82.44-3.65-47.04-14.33-94.66-37.74-135.49-.93-1.62-3.38-4.27-3.86-5.59-1-2.72,5.21-7.93,6.72-10.58,1.06-1.87,1.88-4.92,2.63-6.94.1-.26.4-.64.6-1.19.25-.7.99-1.28.6-2.39.2-.15,2.02-.79,2.19-1.32.13-.41-.31-1.1-.12-1.66.47-1.42,1.87-7.45,2.11-7.77.07-.1.89.14,1.09-.07.16-.17-.79-1.94-.49-2.32.08-.1.85.06,1.19,0,.26-.73-.58-1.12-.59-1.19-.03-.19.01-.4,0-.6,1.5-.63,1.92-2.1,0-1.79,2.33-10.85,1.25-16.97,1.19-27.13,0-.36-.99-.3-1.15-.81-1.15-3.62-1.93-6.56-3.52-10.11-.93-2.08-3.52-5.43-3.99-6.81-.28-.81.36-1.66.29-1.72-.1-.09-1.38-.04-2.11-.59-1.89-1.42-5.21-6.26-7.76-8.39-26.56-22.2-61.08-21.44-83.71,6.16-2.69,3.28-6.42,9.14-8.51,12.82-.8,1.42-1.59,5.55-3.45,6.02l-28.12-7.52c-40.06-7.83-85.26-11.25-123.67,3.36-1.28.49-2.63,1.1-4,1.26-.08-2.31-.68-4.82-1.33-7.05-4.07-13.92-9.72-21.01-21.4-29.4-3.75-2.7-9.23-4.92-14.61-6.27-20.28-5.11-39.71,2.77-52.97,17.83-.93,1.05-2.71,4.99-3.74,5.98-.6.58-1.56.26-1.73.45s-.56,3.39-1.33,4.81c-2.37,4.37-3.09,7.29-4.14,12.44-.08.37-.45.86-.6,1.79-2.11,13.84,2.32,27.91,9.08,39.61,1,1.73,2.48,3.09,3.32,4.91-3.05,4.29-5.97,8.74-8.63,13.29-5.7,9.76-10.55,20.28-14.39,30.41-7.58,20-13.97,43.22-16.26,65.31-2.59-.39-.63,2.16-.6,2.99.02.56.08,1.28,0,1.79-.35,2.36-.89,4.35-1.19,7.17-6.31,57.45-7.04,111.36-6.6,169.38.17,22.61,2.43,45.48.02,68.07-.82,7.74-3.21,15.27-3.58,23-3.4-.66-5.8-3.55-9.3-4.74-1.31-.44-3.44-.98-4.8-1.17-1.29-.18-5.8.19-6.15-.15-.17-.17.08-1.15-.22-1.5-2.28-2.73-13.55-11.55-16.86-11.55h-8.66c.42-10.99,1.04-22.14.62-33.18-.17-4.48-.55-14.87-1.44-18.82-.21-.92-3.98-9.77-4.36-10.18-.49-.52-2.52-1.3-3.35-1.76-.45-.25-.37-1.09-.69-1.1-.56,0-5.91.92-6.42,1.15-5.61,2.49-11.99,20.19-13.47,26.11-3.55,14.19-4.98,30.36-6.14,44.94-1.25.35-2.27-.85-3.26-.92-1.91-.13-8.6.39-10.19,1.05-8.31,3.46-18.48,15.47-22.99,23.76-9.81-16.65-19.53-33.38-27.58-50.97-15.5-33.85-26.22-69.67-32.07-106.52-12.61-79.41.06-165.82,35.33-237.53,3.04-6.18,6.47-12.13,9.39-18.36-1.32-1.36-6.71,8.37-7.27,9.15-34.72,48.97-57.01,108.51-62.61,169.17-1.53,16.55-1.08,31.61,0,48.08.06.99-.07,2,0,2.99,3.53,47.8,15.74,94.91,36.92,137.81,2.65,5.36,11.79,19.24,12.62,23.82s-2.42,7.2-6.53,5.33c-1.76-.8-10.56-16.07-12.16-18.9-20.57-36.31-34.87-79.79-40.34-121.55-14.54-110.97,27.45-225.53,108.98-301.28,38.29-52.86,89.24-93.87,147.17-122.84,3.86-1.93,9.14-5.01,13.09-6.62,1.97-.8,5.76-1.33,7.7-2.18.37-.16,1.23-2,1.81-2.16,8.78-2.39,16.77-6.12,25.24-9Z"/>
  <path class="cls-11" d="M316.2,19.89c-.65.15-1.91-1.1-2.99-1.18-1.61-.12-3.3,1.44-4.63,1.1-.49-.13-1.49-1.14-2.56-2.05-5.01,3.82-10.75,6.81-16.26,9.09-4.1,1.7-8.43,3-12.82,3.6-.03.08-.06.17-.1.23-.75,1.09-3.68.31-3.93.55-.26.26.35,3.04-.06,3.53-.4.48-4.44.34-5.06,1.21-.72,1.02.32,3.77-.83,4.57-.43.3-6.48-.41-7.83.51-1.09.74-.31,3.67-.55,3.93-.97.99-9.21-2.84-10.53,1.77-.35,1.21.41,2.16.31,2.66-.32,1.61-2.26.27-3.23.33-.88.06-5.47.4-5.67.6-.15.15-.01,3.13-.62,4.31-.08.15-2.27,2.41-2.42,2.52-2.42,1.71-4.69.3-6.54,1.23-1.01.5-3.24,6.05-4.16,6.63-.86.54-2.58-.93-3.64-.1-.21.17-1.57,4.4-2.76,4.56-.98.13-1.94-.51-2.88-.51-.8,0-2.82.85-3.27.47-.48-.41-.07-4.77-1.59-5.28-.38-.13-7.39-.51-8.02-.42-4.27.63-2.32,4.43-3.31,5.18-1.33,1.01-7.59-1.27-8.92.54-.37.51-.19,1.68-.29,1.79-.16.17-3.3-1.4-4.64.18-.26.3.05,1.29-.49,1.66-.93.65-3.04.25-3.85.82-1.09.76-.69,4.56-1.53,5.16-2.65,1.88-7.34-1.86-8.52.03-.16.26-.6,5.21-.68,6.19-.06.8.86,2.1.36,2.71-.61.76-2.61.39-3.41,1.4-.7.88-.4,2.56-.56,2.72-.38.37-8.53-.02-9.99,2.55-.51.89.13,3.19-.13,3.46-.55.55-6.17-.94-4.78,4.78-6-1.64-3.69,1.63-5.05,3.61-.94,1.37-6.33-.04-4.51,6.54-3.26-1.71-3.47,1.06-5.52,1.94-2.4,1.03-4.35-.35-4.6,3.81-.09,1.52.7,2.88.57,4.41,10.6-9.97,23.7-20.82,35.56-29.85,11.86-9.04,24.29-17.26,36.89-25.25,3.87-1.43,6.7,2.86,3.75,6.14-3.45,3.83-12.63,8.96-17.2,12.5-6.99,5.42-15.25,11.46-21.36,17.93l.59.3c.24,1.89-1.08.28-1.19.29-2.52.28-19.05,16.56-22.1,19.42-19.45,18.24-35.63,35.54-52.58,56.45.74.63,1.36,1.38,1.19,2.39-1.98.21-1.94.11-1.79-1.79-33.34,41.34-59.9,84.89-79.85,134.31-2.44,6.04-4.4,14.04-7.13,19.75-1.32,2.75-4.55,6.28-5.5,1.41-.58-2.98,3.37-11.62,4.48-14.98,17.39-52.41,44.52-102.8,78.45-146.46-.9-1.56-.26-2.21-2.55-1.66-3.4.81-1.85,3.66-2.23,4.06-.3.31-6.59.15-8.37,1.48-1.74,1.3-.87,8.36-1.18,8.67-.3.3-3.74-.6-4.52.56-.47.7-.33,4.47-.87,4.82-.32.21-2.89-1.58-3.91.6-.27.58.27,6.64-.36,7.67-.21.34-2.07.36-2.6,1.28-.46.8-.17,2.06-.6,2.98-1.11,2.36-5.28,1.35-6.01,2.36-1.04,1.45.66,7.07-.84,8.12-.96.67-2.66-.31-3.03,1.79-.39,2.2,2.77,1.9,2.41,3.56-.44,2.04-3.08-.08-3.93-.27-3.19-.69-2.01,1.71-2.79,3.71-.39,1-1.49,1.4-1.65,2.57-.17,1.24,1.07,7.58.62,8.04-8.48-2.46-4.68,7.33-6.04,8.9-.19.22-2.64.22-3.56,1.51-.77,1.08-.69,4.12-1.23,4.45-.73.45-3.05-.47-3.85.64-.64.89.4,2.27.33,3.29-.09,1.49-1.98,3.57-1.18,5.7-7.04-1.81-2.94,2.49-2.93,6.28,0,1.09-.77,6.54-1.18,7.12-.52.73-4.23.13-4.77,1.02-.53.88.68,4.24-1.03,4.62-.49.11-1.42-.59-2.22-.43-3.33.69-.81,9.31-1.02,11.5-.1,1.12-.75,1.83-1.35,2.52-.19,1.85-.48,3.69-.84,5.51.18,1.56.27,3.04-.47,3.68-.12.11-.28.2-.45.27-2.87,11.01-8.07,21.56-10.64,32.7.41,2.39-1.15,6.29-1.09,6.66.54,3.04,8.42.56,10.71.72.94-.65.45-3.84.7-5.27.97-5.71,3.83-2.63,4.64-3.42.35-.34.28-8.16.72-9.73.51-1.82,3.54-3.19,3.91-5.01.53-2.61-.53-4.28-.46-5.81.02-.31.84-.25,1.14-.82.28-.53-.12-1.54.63-2.23.72-.66,3.35-.7,3.54-.94.27-.34-.11-2.17.17-3.11.85-2.86,2.21-5.48,2.67-9.16.46-3.7.33-2.39,1.27-5.41.32-1.03.64-6.07,1.32-6.75.25-.25,3.49,1.55,4.52.02.5-.74-.83-6.77,1.04-9.7.95-1.48,1.64-.92,2.51-1.64.69-.56.92-1.78,1.49-2.12,2.11-1.27,3.32.55,2.3,2.01-.22.32-4.81,1.3-5.23,2.86.69,1.93,0,3.37-.03,5.19-.02,1.09.81,6.01-.08,6.91-.12.12-1.72.02-2.67.6-2.85,1.74-.49,6.33-.27,9-4.88-1.46-6.39,5.04-6.53,8.76-.06,1.54.93,3.39.5,4.6-.49,1.41-3.67,1.04-4.05,1.65-1.08,1.71-.12,12.19-.08,14.85-.37.37-7.1-2.93-4.66,4.97.62,1.99,4.41.61,2.78,5.4-.27.79-1.56,1.02-2.17,2.01-.81,1.32-1.68,5.94-1.92,6.15-.17.15-3.48-1.28-4.2.4l.58,21.93c-.88,1.8-2.45.11-3.97.79-2.94,1.31-1.29,3.51-1.36,5.26-.06,1.41-.81,2.4-.5,4.03.49,2.53,2.69,2.02,2.89,2.54.67,1.73-1.8,1.94-1.8,2.39v11.65c1.38.74,1.89-3,2.98-1.79.14.15-.64,3.86-.74,4.03-.21.37-1.72.74-2.29,1.59-2.2,3.31,1.66,5.25,1.81,7.85.07,1.2-.65,2.61-.62,4.14.04,2.26,1.29,4.34,1.29,6.58,0,1.69-1.03,3.69-.68,5.35.14.66,1.51.1,1.76.36.3.31-.38,7.89-.6,8.55-.44,1.31-2.99.61-3.49,3.07-.77,3.79,1.76,6.16,1.67,7.05-.49,4.85-1.9,10.76-2.09,15.71-.05,1.28.5,9.21.97,9.52.99.66,4.29-.35,4.68,1.82.15.82-.56,4.22-.48,5.94.08,1.69.59,3.16.65,4.72.11,2.96-.71,6.57-.05,9.48.15.65,4.02,1.74,4.21,2.61.21.95.48,4.56.53,5.79.03.84-.65,1.95-.59,3.05.06,1.25.69,8.32.92,8.69.81,1.26,2.75-.21,3.91-.03v10.45c0,.18.52.66.56,1.24.09,1.24-.83,2.1-.18,3.68.52,1.26,3.37,1.78,3.79,4.05.26,3.83.39,7.65.46,11.46,2.19,6.09,8.78,10.88,11.1,16.94.52,1.35.95,2.77,1.32,4.21.47-.19.96-.4,1.47-.67-.77,2.15.84,4.27.99,5.76.14,1.33-.75,5.32.17,5.92.95.61,3.88-.25,4.17,1.23.59,3-2.25,1.32-3.12,1.52-2.12.49-1.5,4.01-.91,5.49.55,1.37,2.62.7,3.84,2.13.92,1.08.7,2.79,1.42,3.36.73.57,4.05.73,4.19.89.44.49-1.5,3.56-.04,4.51,1.9,1.24,3.79-1.65,4.22,2.95.14,1.53-.4,5.4.26,6.32.72,1,3.07.12,4.29,1.09,1.23.98.48,3.26,1.41,3.99.7.55,2.18-.64,3.23-.3.75.24.78,1.42,1.09,1.62.45.28,10.1.33,10.55.05.27-.17,1.27-5.57,1.25-6.25-.04-1.79-2.07-1.18-2.36-1.46-.12-.11.99-1.94-.61-2.95,1.21-.02,2.13.47,1.79-1.2-2.61.57-1.59-1.55-2.35-3.33-1.3-3.07-1.7-6.16-2.79-8.56-1.02-2.23-4.15-3.47-4.34-4.02-.66-1.84.52-4.78-.53-7.24-1.06-2.49-3.25-1.56-3.8-2.3-1.78-2.42,1.04-11.37-4.71-8.61.82-2.61-1.69-5.4-1.65-7.59.03-1.76,3.56-5.71-1.34-4.96-.3-1.6,1.5-1.39,1.99-2.53,2.03-4.72-3.74-3.85-4.31-4.71-.41-.63.33-2.64-.33-3.56-.48-.66-1.99-.42-2.71-.87-1.14-.71-1.35-3.52-1.58-4.88-.18-1.02-.16-4.13-.27-4.59-.18-.73-1.64-.67-2.08-2.11-1.14-3.74-.31-7.68-.9-11.07-.17-.97-1.01-1.84-1.26-2.92-.31-1.32-.51-4.72-1.02-5.43-.48-.66-1.93-.1-2.78-.92-1.34-1.29.28-3.87-3.27-3.02-.51-1.73,1.41-1.07,1.75-2.15.39-1.26-1.12-3.86-1.81-5.13-.27-.49-1.14-.55-1.16-.84-.11-1.3,1.25-2.03,1.12-2.81-.37-2.25-2.71-7.26-2.92-9.06-.32-2.81,1.32-4.21,1.29-6-.02-1.25-1.07-2.1-1.28-3.54-.46-3.13.83-6.13.68-9.01-.1-1.79-1.07-2.86-1.14-3.67-.07-.87,1.71-3.9,1.08-7.06-.26-1.29-1.37-1.62-1.66-2.52-.53-1.68-.32-6.92-.99-7.97-.49-.76-3.66-1.09-4.52-2.06-1.05-1.17.21-3.07-1.78-2.7,3.53,47.8,15.74,94.91,36.92,137.81,2.65,5.36,11.79,19.24,12.62,23.82.81,4.48-2.42,7.2-6.53,5.33-1.76-.8-10.56-16.07-12.16-18.9-20.57-36.31-34.87-79.79-40.34-121.55-14.54-110.97,27.45-225.53,108.98-301.28,38.29-52.86,89.24-93.87,147.17-122.84,3.86-1.93,9.14-5.01,13.09-6.62,1.97-.8,5.76-1.33,7.7-2.18.37-.16,1.23-2,1.81-2.16,8.78-2.39,16.77-6.12,25.24-9-4.51-7.23-3.59-.95-5.1-.6ZM13.65,391.45h-1.19v-2.38h1.19v2.38ZM47.7,260.03c-1.14-.03-3.44-.28-2.98-1.48.74-1.93,3.2-.11,2.98,1.48ZM67.42,224.78h-1.19v-1.79h1.19v1.79ZM73.4,217.62c-.25-1.68.39-3.6,2.38-3.58l.61,2.98-2.99.6ZM82.96,202.68c-.41-1.11,1.87-2.93,2.38-2.38.27,1.87-.58,2.65-2.38,2.38ZM87.73,195.52c.26-.23,3.36.37,3.53.65,1.59,2.58-3.66,2.33-3.53-.65ZM93.71,185.95c-.65-.65.54-1.84,1.19-1.19s-.54,1.84-1.19,1.19ZM110.43,174c-.87.1-3.54.91-4.01,1.36-.5.47-.86,4.48-2.55,2.83-1.26-1.22,1.78-7.37,3.3-7.77.84-.22,3.83,2.96,3.27,3.58ZM111.05,169.2c-.55-.79.42-4.2,2.97-2.66,3.59,2.16-1.57,4.69-2.97,2.66ZM116.49,164.37c-.31-.37.02-1.66-.08-2.31,1-.07,3.23-.21,3.58.9.77,2.47-2.91,2.09-3.5,1.41ZM121.79,160.87c-.33-.27-1.72-6.12,1.69-4.09,1.59.95.25,5.67-1.69,4.09Z"/>
  <path class="cls-10" d="M890.6,316.78c.37,1.7.89,4.24,1.19,5.97,1.76,10.1,2.49,20.75,3.58,31.06.12,1.13.47,2.27.6,3.58.3,3.11.95,6.45,1.19,9.56.12,1.57-.11,3.2,0,4.78.12,1.82.52,4.03.6,5.38.02.4-.02.8,0,1.19.34,6.7.48,13.6.6,20.31.07,3.97.02,7.98,0,11.95-.01,2.38.05,4.79,0,7.17-.18,8.5-.62,17.2-1.19,25.69-.18,2.59-.39,5.62-.6,8.36-.4,5.19-1.56,9.53-1.19,14.93-.84.33-.48,1.19-.6,1.79-.16.78-.53,1.65-.6,2.39-.09.98.05,2,0,2.99-.04.79.01,1.6,0,2.39-1.77-.38-1.15.88-1.19,2.39-.02.78-.06,1.61,0,2.39-1.03.52-.49,2.06-.6,2.99-.47,3.93-1.68,8.1-1.79,11.95-.81.9-.98,2.41-1.19,3.58-.28,1.51-.72,3.92-.6,5.38-.83.37-.45,1.23-.6,1.79-1,3.77-1.52,5.56-1.79,9.56-.86.26-1.19.91-1.19,1.79-.14.19.05,2.31,0,2.99-1.59-.29-1.24.39-1.19,1.79-.33.25-.4,2.39-.6,2.99-1.88,5.55-3.5,11.38-5.38,16.73-1.53,4.34-3.11,8.86-4.78,13.14-.49,1.25-1.66,3.62-2.39,5.38-.64,1.54-1.14,3.24-1.79,4.78-.57,1.34-1.19,2.86-1.79,4.18-.34.74-.43,1.42-.6,1.79-.2.44-2.22,4.56-2.39,4.78-.04.06-.89-.28-1.18.44-.31.76-.29,2.14-.61,3.15-1.42-.34-1.21.77-1.59,1.66-1.4,3.28-2.76,6.45-4.38,9.69-.6,1.19-1.19,2.4-1.79,3.58-.83,1.64-2.08,3.55-2.99,5.38-.97,1.95-2.33,2.8-2.39,5.38-1.59.96-3,2.9-2.99,4.78-2.55,2.32-1.71,3.31-2.99,5.38s-3.34,4.27-4.78,7.17c-.53,1.06-.53,2.28-.6,2.39s-1.2.15-2.06,1.21c-1.13,1.39-1.19,3.06-1.53,3.57-1.8,2.71-3.67,5.82-5.38,8.36-1.92,2.86-4.91,6.97-7.17,10.16-.46.65-.85,1.31-1.19,1.79-1.34,1.86-3.76,4.47-5.38,6.57-.42.55-.42,1.57-.6,1.79-2.64,3.4-7.53,8.29-10.75,11.95-.45.51-.74,1.3-1.19,1.79-1.03,1.13-2.38,2.96-2.99,3.58-.26.26-.93.94-1.19,1.19-.12.11-1.01.13-1.49.58-2.26,2.13-10.51,10.08-12.85,10.77-.48.14-1.73,0-2.39,0-1.53-1.9-3.26-3.49-2.98-6.22.24-2.32,8.61-10.2,10.64-12.67,13.11-15.93,24.5-33.35,35.35-51,1.58-2.57,2.71-5.29,4.18-7.77s3.33-5.25,4.78-7.77c.8-1.4,1.59-2.78,2.39-4.18,2.87-5.06,6.22-10.35,8.89-15.44,4.86-9.26,9.3-18.73,13.81-28.17-.05-.38.07-.84,0-1.19,4.07-6.69,6.38-14.2,8.96-21.51.32-.9.37-1.73.6-2.39,5.58-16.37,9.06-30.12,11.95-47.19.15-.91-.15-2.07,0-2.99.71-4.37,1.77-8.22,2.39-13.14.18-1.41.43-2.79.6-4.18.09-.78-.09-1.61,0-2.39,1.66-14.59,2.96-28.89,3.58-43.61.09-2.18-.07-4.39,0-6.57.11-3.55.54-7.53.6-11.35.13-7.92.19-15.98,0-23.89-.03-1.39.04-2.79,0-4.18-.1-3.29-.43-6.8-.6-10.16-.55-10.86-1.24-21.94-2.4-32.55-.4-3.64-3.26-15.61-2.07-18.22.33-.73,2.28-2.2,3.07-2.27,3.37-.32,4.43,6.28,4.99,8.84Z"/>
  <path class="cls-2" d="M851.17,233.75c.42,1,.52,2.29.6,2.39l.6,1.19c-.17,1.53.53,1.92.6,2.39.37,2.61,1.4,5.26,1.79,7.17.65,3.16,1.11,6.4,1.79,9.56.35,1.63,1.02,3.36,1.19,4.18.18.86.45,1.66.6,2.39.73,3.53,1.75,7.4,2.39,10.75.14.71-.14,1.68,0,2.39.41,2.11.8,4.47,1.19,6.57s.79,4.39,1.19,6.57c.22,1.19.38,2.45.6,3.58.16.8.45,1.58.6,2.39.22,1.19.34,2.3.6,3.58.27,1.36.7,7.35,1.19,7.77l.6,1.19c-.09,1.32-.05,2.84,0,4.18.02.66-.18,1.5.6,1.79-.2,1.93.39,4.01.6,5.97.23,2.13.96,4.6,1.19,6.57.83,6.91,1.25,13.95,1.79,20.91,1.49,19.16,1.86,37.62,1.19,56.75-.06,1.59.06,3.19,0,4.78-.12,3.03-.43,5.98-.6,8.96-.1,1.78.12,3.6,0,5.38-.04.65-.51,1.78-.6,2.99-.17,2.34.21,4.84,0,7.17-.05.59.05,1.2,0,1.79-.19,2.15-.96,4.89-1.19,7.17-.18,1.79-.41,3.58-.6,5.38-.17,1.59-.42,3.17-.6,4.78-.16,1.48-.45,3.11-.6,4.78-.05.59.04,1.2,0,1.79-.02.3-.55,1.12-.6,2.39-.03.79-.03,1.6,0,2.39-1.92-.33-1.03.97-1.17,2.09-.34,2.72-.78,5.37-1.22,8.06-.46,2.84-.68,6.26-1.19,8.96-.28,1.47-.84,3.69-1.19,5.38-.17.8-.42,1.59-.6,2.39-.34,1.55-.83,3.19-1.19,4.78-.41,1.78-.77,3.6-1.19,5.38-.72,2.98-1.7,5.61-2.39,8.96-.36,1.76-1.98,4.35-1.19,6.57l-3.89,8.96c.36,3.7-2.98,7.64-3.28,10.76-.04.39,0,.8,0,1.19-.89,1.64-2.91,5.98-2.99,7.77-.02.38-.05.83,0,1.19-1.07.29-.98.96-1.19,1.79-.13.5.15,1.38,0,1.79-16.1,43.74-42.04,85.65-67.51,124.55-1.74,2.66-6.13,6.97-6.57,9.86-.03.19,0,.4,0,.6-1.79.88-2.49,2.7-3.58,4.18-.85,1.15-1.25,2.28-1.79,2.99-6.1,8.02-12.51,15.73-18.52,23.89-1.12,1.52-2.73,2.68-3.58,4.18-3.81.55-6.37-1.38-5.04-5.34.98-2.94,7.58-11.02,9.75-14.16,16.64-24.05,34.73-48.72,49.54-74.7.9-1.58,3.74-6.04,4.06-7.36.3-1.22-.46-2.3-.37-2.38.16-.13,1.21.34,1.85-.38,2.16-2.4,6.27-10.74,7.94-14.03,21.07-41.46,38.02-85.23,46.52-131.49,2.13-11.62,5.21-26.67,5.81-38.41.59-11.56,1.37-23.58,1.79-35.53.07-1.98-.05-3.99,0-5.97.18-7.47.2-14.62,0-22.1-.04-1.59.06-3.19,0-4.78-.14-3.62-.38-7.15-.6-10.75-.67-11.27-2.3-22.76-2.39-34.05-.01-1.31.44-3.37-.6-4.18.01-.2,0-.4,0-.6.11-3.91-.72-8.06-1.19-11.95-.15-1.28-.46-2.44-.6-3.58-.29-2.42-1-4.6-1.19-5.97-.16-1.11.16-2.48,0-3.58-1.27-8.59-2.65-17.15-4.18-25.69-.11-.61-.32-2.78-.6-2.99l-.6-1.19c.1-1.22-.4-3.93-.6-5.38-.33-2.44-1.45-4.94-1.79-6.57-.4-1.94-1.73-6.45-1.84-7.42-.18-1.49.09-3.5.05-5.12l2.39-.6Z"/>
  <path class="cls-11" d="M851.77,374.13c2.1.46,4,3.62,3.59,5.57-.09.42-1.85.52-1.81,3.09,0,.42,1.07,5.97,1.21,6.44.22.72,1.51.42,1.81,1.9.52,2.64-1.36,5.65.05,7.73s4.15-.27,3.53-2.63c1.78-.5,1.25,2.23,2.68,1.79.58-.17.51-2.12,2.1-1.8-.42,11.95-1.2,23.97-1.79,35.53-.6,11.73-3.68,26.79-5.81,38.41-8.5,46.27-25.45,90.03-46.52,131.49-1.67,3.29-5.79,11.63-7.94,14.03-.64.72-1.69.25-1.85.38-.09.08.67,1.16.37,2.38-.33,1.32-3.16,5.78-4.06,7.36-14.81,25.98-32.9,50.66-49.54,74.7-2.17,3.13-8.77,11.22-9.75,14.16-1.33,3.97,1.23,5.89,5.04,5.34-.68,1.19-2.1,5.21-2.39,6.57-4.67,2.21-5.94-5.59-4.78-8.96-1.91.43-1.75-.81-2.68-1.81-.36-.39-1.29-.46-1.43-.68-.33-.53.8-2.63-.08-4.21-.49-.88-3.95-5.85-4.07-6.23-.43-1.32.09-3.12-.63-4.77-.42-.96-1.16-1.26-1.86-2.61.8-3.24,2.33-2.7,3.89-4.17,29.14-27.46,54.81-61.66,74.24-96.61,1.11-2,3.83-4.53,4.04-4.95.34-.68-.36-1.82-.09-2.99.99-4.27,8.45-16.39,10.76-21.56,27.68-61.95,37.18-125.3,33.8-192.9Z"/>
  <path class="cls-2" d="M133.73,123.23c10.6-9.97,23.7-20.82,35.56-29.85,11.86-9.04,24.29-17.26,36.89-25.25,3.87-1.43,6.7,2.86,3.75,6.14-3.45,3.83-12.63,8.96-17.2,12.5-6.99,5.42-15.25,11.46-21.36,17.93-.19.2-.41.39-.6.6-2.52.28-19.05,16.56-22.1,19.42-19.45,18.24-35.63,35.54-52.58,56.45-.17.21-.42.38-.6.6-33.34,41.34-59.9,84.89-79.85,134.31-2.44,6.04-4.4,14.04-7.13,19.75-1.32,2.75-4.55,6.28-5.5,1.41-.58-2.98,3.37-11.62,4.48-14.98,17.39-52.41,44.52-102.8,78.45-146.46,13.71-17.65,31.65-37.4,47.79-52.57Z"/>
  <path class="cls-2" d="M698.84,70.67c-10.48-9.15-21.17-18.2-32.56-26.28-9.53-6.75-19.73-12.52-29.55-18.83-2.13-5.89,2.9-4.7,6.5-2.92,6.5,3.22,15.58,9.29,21.89,13.36,23.53,15.2,46.74,33.44,66.59,52.58,3.36,3.24,6.89,6.81,10.16,10.16,2.22,2.28,4.71,4.6,6.57,6.57,2.52,2.66,5.49,5.81,7.77,8.36.34.38.64,1.16,1.19,1.79,1.55,1.76,3.23,3.55,4.78,5.38,1.32,1.56,2.35,2.59,3.58,4.18,1.14,1.47,1.01,2.3,2.99,4.18.65.62.78,1.06,1.79,1.79,0,.87.34,1.53,1.19,1.79.99,2,3.65,5.63,5.38,6.57,1.23,2.99,3.3,5.71,5.11,8.35.46.68,1.3.99,1.46,1.21,2.79,3.98,5.76,8.47,8.36,12.54.4.62.84,1.23,1.19,1.79.76,1.21,1.54,2.77,2.39,4.18.59.98,1.13,2.47,1.79,3.58,1.55,2.61,3.3,5.11,4.78,7.77,3.17,5.68,6.06,11.49,8.96,17.32,1.11,2.22,2.55,4.5,3.58,6.57.43.85.15,1.97,1.19,3.58.2.31.2.87.6,1.19l1.19,1.79c.07.57-.1,1.27,0,1.79.19.94.68,2.16,1.79,1.79,0,.4-.02.8,0,1.19.13,2.18,2.16,4.85,2.39,7.17s-.23,2.52-1.19,4.18c-.96-.55-2.27.58-2.39.6-.74.11-1.62-.08-2.39,0-2.13-3.48-3.54-7.38-5.47-10.96-15.41-28.61-32.66-57.07-52.83-82.78-2.42-3.08-9.39-9.52-10.88-12.14-.35-.61.11-1.74-.22-2.14-.2-.24-1.35-.12-1.96-.71-1.04-1-1.85-3.38-2.92-4.57-.63-.7-2.11-1.27-2.78-2-1.37-1.47-3.87-4.95-5.38-5.97.16-1.05-.13-1.42-1.19-1.19-.07-.18.09-.55,0-.6.14-1.27.08-1.34-1.19-1.19-.16-.24-.45-.4-.6-.6-1.44-1.95-2.77-4.17-5.38-4.78-.55-.77-1.13-1.5-1.79-2.39-2.41-3.22-3.77-4.42-6.57-7.17-.47-.46-1.33-.76-1.79-1.19-2.4-2.3-5.33-4.94-7.77-7.17-.76-.69-1.46-1.55-2.39-2.39-1.96-1.77-3.84-3.51-5.97-5.38Z"/>
  <path class="cls-11" d="M844.6,549.76c3.82,2.51,3.07,4.76,2.98,8.96,1.56-.94,4.68,1.28,5.07,1.2.72-.16.82-2.05,1.53-2.67s3.61-1.4,4.76-1.51c-4.51,9.44-8.96,18.91-13.81,28.17-2.67,5.09-6.02,10.38-8.89,15.44.04-.99.26-2.47-.97-2.92-3.03-1.11-2.61,2.85-2.62,5.03,0,1.14-.56,2.41,1.2,2.07-1.45,2.52-3.33,5.32-4.78,7.77-5.76-2.55-5.8,1.65-6,6.27-.08,1.95.08,1.53,1.82,1.49-10.85,17.65-22.24,35.07-35.35,51-2.04,2.48-10.4,10.36-10.64,12.67-.28,2.73,1.45,4.32,2.98,6.22-6.37-.08-3.27-4.89-4.79-5.98-.3-.21-5.39,1.54-6.56,1.2.44-2.9,4.83-7.21,6.57-9.86,25.47-38.9,51.41-80.8,67.51-124.55Z"/>
  <path class="cls-12" d="M738.86,110.69c.67.73,2.15,1.3,2.78,2,1.07,1.18,1.88,3.57,2.92,4.57.62.59,1.76.47,1.96.71.34.4-.12,1.53.22,2.14,1.48,2.62,8.46,9.05,10.88,12.14,20.16,25.71,37.42,54.17,52.83,82.78,1.93,3.58,3.34,7.48,5.47,10.96-1.09.11-2.11.57-2.39.6-2.52.21-3.95-6.28-4.82-7.9-10.14-19-21.86-38.38-34.96-55.96-9.72-13.05-20.77-25.03-31.31-37.39-2.66-3.12-6.16-6.65-9.56-9.86,2.76,1.54,6.2-1.93,5.97-4.78Z"/>
  <path class="cls-11" d="M890.6,316.78c-.56-2.55-1.61-9.16-4.99-8.84-.79.08-2.74,1.54-3.07,2.27-1.18,2.6,1.68,14.58,2.07,18.22,1.16,10.62,1.85,21.69,2.4,32.55-2.39-.25-5.96,2.09-6.45-1.62-.15-1.14.6-2.29.53-3.46-.63-10.82.47-23.77-.65-34.05-.11-1.01-2.07-8.93-2.37-9.47-.39-.7-1.52-.22-1.72-.45-1.21-1.32.72-3.47,2.23-2.25.37.3-.6,2.37,1.25,1.71.02-1.53.18-6.61,1.57-7.09.84-.29,7.47-.23,8.03.18.25.18,1.4,4.68,1.9,5.86,1.15,2.69,3.58,3.78-.75,6.43Z"/>
  <path class="cls-11" d="M739.58,732.52c.1-.4.21-.79.32-1.19.09-.31.2-.6.34-.87-.08-1.26.12-2.47.42-3.89-4.67,2.21-5.94-5.59-4.78-8.96-1.91.43-1.75-.81-2.68-1.81-.36-.39-1.29-.46-1.43-.68-.33-.53.8-2.63-.08-4.21-.49-.88-3.95-5.85-4.07-6.23-.43-1.32.09-3.12-.63-4.77-.42-.96-1.16-1.26-1.86-2.61-1.15-2.22-2.82-5.9-3.43-8.22-.44-1.69.14-4.16-.84-5.73-.76-1.21-2.16-.92-2.61-1.57-.79-1.13-1.42-7.25-1.6-7.64-.34-.72-3.41-3.87-3.47-4.15-.18-.83.19-1.85,0-2.76-.09-.45-.97-.34-1.06-.69-.24-1.03.5-2.85-.09-4.77-.74-2.41-3.36-4.34-3.53-4.88-.38-1.14.16-2.7-.2-3.98-.27-.93-1.6-1.49-2.12-2.66-1.06-2.38-.38-7.63-3.74-8.51,3.08,13.28,10.37,28.59,14.93,41.82.31.91,1.6,2.41,1.68,3.4.07.92-.94,1.44-1.08,1.98l2.4,1.03c5.81,14.48,11.96,28.82,18.44,43.02.27-.15.54-.3.79-.47Z"/>
  <path class="cls-11" d="M887.01,417.14c-.63,14.72-1.93,29.02-3.58,43.61-1.78-.65-1.93,2.94,0,2.39-.16,1.4-.42,2.78-.6,4.18-.8.25-1.93-.58-2.39-.6-.1-5.84-.09-11.77-.02-17.65.06-5.5-.21-7.9-.57-13.12-.16-2.35-.13-15.88,1.15-16.76.67-.46,2.6-.21,3.69-.52,1.27-.35.91-1.79,2.32-1.54Z"/>
  <path class="cls-11" d="M870.88,347.25c2.41-.39,1.34,3.45,1.9,4.08.3.34,2.63.09,2.77,2.29.04.6-1.69,4.08-1.6,5.91.07,1.48,1.5,2.26,1.74,4.12.28,2.19.09,6.06,0,8.41-.24,5.55-1.1,11.42-.61,17.3.08.98.57,4.5.89,5.08.82,1.46,6.11,2.39,1.11,5.31-.9.53-2.52.58-2.61.68-.25.26,2.27,4.34-2.39,3.58.66-19.13.29-37.59-1.19-56.75Z"/>
  <path class="cls-11" d="M880.44,483.45c-2.89,17.08-6.37,30.82-11.95,47.19-2.1-2.02,1.01-4.11,1.2-5.72.13-1.09-.55-2.08-.49-2.95.17-2.69.78-5.47.55-8.29,1.09-.44,4.02-3.19,4.15-4.22.75-5.85-2.31-3.49-2.93-5.51-.38-1.22-.74-7.11-.12-8.19.38-.66,8.38-.16,6.25-6.35l3.34-5.98Z"/>
  <path class="cls-11" d="M765.15,691.93c1.47.45.75,6.28.52,6.53-.17.18-1.15-.11-1.55.17-.56.39-.5,2.08-1.35,2.58-1.19.7-3.26-.31-4.19,1.19-.44.97,2.94,1.62,1.78,3.87-1.61.18-2.25-3.58-3.91-1.21-.53.75,1.21,10.19-2.93,8.97-.89-.26-.55-2.29-1.81-1.78-1.54.63.16,2.67-.87,3.3s-2.99.15-4.22.28c6.01-8.17,12.42-15.88,18.52-23.89Z"/>
  <path class="cls-11" d="M867.9,533.03c-2.58,7.31-4.89,14.82-8.96,21.51-.16-.77-1.27-1.73-1.11-2.6.14-.74,1.52-1.37,1.96-2.22,2.8-5.4-.1-14.2,3.34-19.67l4.77,2.99Z"/>
  <path class="cls-11" d="M891.79,322.76l2.41,1.01c.43,3.96,1.51,7.91,1.72,11.9.07,1.28-.66,2.45-.52,4.04.19,2.25,2.2,3.79,2.37,5.5.15,1.48-.79,4.93-1.11,6.64-.21,1.11.51,2.32-1.28,1.97-1.1-10.31-1.82-20.96-3.58-31.06Z"/>
  <path class="cls-11" d="M886.41,399.22c.37-.07.81.04,1.19,0-.06,3.82-.48,7.8-.6,11.35-1.22-1.48-4.57-.84-5.29-1.28-.98-.59-.98-8.79,0-9.39.2-.12,3.69-.5,4.69-.68Z"/>
  <path class="cls-11" d="M818.31,188.35c-.06,1.35,1.47,4.46.34,6.02-.84,1.16-3.79-.27-3.97,2.06-.23,2.96,4.42,3.09,4.23,5.9-.03.49-.57.81-.6.96l-3.58-.6c-1.03-2.07-2.48-4.35-3.58-6.57l2.11-4.76,5.06-3Z"/>
  <path class="cls-11" d="M887.61,375.32c.19,7.92.13,15.98,0,23.89-.38.04-.83-.07-1.19,0-2.12-4.72-1.04-10.62-1.17-15.86-.06-2.51-2.13-6.79,1.17-8.04.28-.11.83.07,1.19,0Z"/>
  <path class="cls-12" d="M838.03,294.08l4.18-1.19c.69,2.93-2.25,4.31-1.79,7.16,3.67-.54,1.82.94,2.72,3.56,1.03,2.97,5.15,2.01,3.85,6.6-2.83.94-2.73-4.59-4.78-1.19-1.1-4.68-2.85-10.18-4.18-14.93Z"/>
  <path class="cls-12" d="M835.64,285.12c-1.86-6.09-4.41-13.01-6.57-19.12,2.89-.06,2.61,2.36,3.85,3.62.7.71,3.14,1.32,3.32,2.07.25,1.05-1.83,1.68-1.81,2.97.02.8,1.09,1.52,1.22,2.44.16,1.18-.64,2.25-.5,3.41.18,1.45,3.07,3.54.48,4.61Z"/>
  <path class="cls-12" d="M854.16,263.02c1.53,8.54,2.92,17.1,4.18,25.69l-2.11-4.18c.3-2.38-.58-5.67-1.72-7.83-.78-1.47-2.42-1.74-2.68-2.74-.3-1.15.96-2.29,1.1-3.5.2-1.73-.02-3.6.03-5.37.03-1.15-.6-2.4,1.2-2.06Z"/>
  <path class="cls-11" d="M798.6,677.59c1.69,2.72-3.66.59-2.39,3.58.2.23,3.55-1.72,3.58.89-.74,2.11-4.24,1.16-4.7,1.58-.3.27.16,1.78-1.05,2.22-.97.35-3.15-.07-4.06.61-.67.5-.1,1.6-.49,2.3-.09.16-2.38,2.51-2.56,2.55-.89.24-2.23-1.66-2.67-2.39,2.34-.69,10.59-8.65,12.85-10.77.48-.45,1.37-.46,1.49-.58Z"/>
  <path class="cls-11" d="M855.95,516.3c.03.1,1.2.39,1.2,1.46,0,.91-.91,1.71-1.07,2.55-.21,1.09.1,3.17-.2,3.67-.24.4-2.21.54-2.32.7-.18.25.55,1.37.43,1.98-.17.84-.84,1.52-.99,2.52-.38,2.5-.52,5.48-.64,8.02l-3.58-1.19c.31-3.12,3.64-7.06,3.28-10.76l3.89-8.96Z"/>
  <path class="cls-11" d="M880.44,466.72c.46.02,1.58.85,2.39.6-.62,4.92-1.68,8.77-2.39,13.14-2.5-1.87-3.05-12.14-1.19-13.46.37-.26.75-.29,1.19-.28Z"/>
  <path class="cls-11" d="M829.07,638.76c4.28,2.65.29,3.69-.21,4.91-.88,2.13.61,4.4-2.61,5.11-1.43.31-2.91.09-4.35.13,2.25-3.18,5.25-7.29,7.17-10.16Z"/>
  <path class="cls-11" d="M814.73,659.07c6.27,2.38,1.36,2.48.16,3.75-.44.47-.07,1.77-1.13,2.15-.92.33-3.62-.15-3.82.07-.17.19.27,1.58-.12,2.26-.23.4-2.05.71-2.23,1.7-.14.71,1.46,1.67,1.16,2.91-.6,2.49-3.37-1.56-4.78-.88,3.22-3.65,8.11-8.55,10.75-11.95Z"/>
  <path class="cls-12" d="M683.31,73.65l5.97-1.79c-1.05,4.23,3.04,3.09,4.33,6.14.6,1.42.25,2.29.45,3.42.88.04,3.32-.87,3.58-.6.15.16-.39,2.5,1.19,3.3,2.99,1.5,8.53-2.13,6.57,5.07.59.13,2.18-.17,2.39,0,.91.76-2.2,1.66-1.19,2.98-1.77-1.35-12-9.04-12.41-9.7-.27-.42-.07-.74-.13-1.05-2.08-.09-8.42-5.31-10.54-6.8-.28-.2-.16-.93-.21-.96Z"/>
  <path class="cls-11" d="M864.91,390.26c-1.81.33-1.15-.91-1.19-2.06-.23-5.95.5-11.96-.43-17.88l1.62-2.16c.2,7.48.18,14.63,0,22.1Z"/>
  <path class="cls-12" d="M731.7,88.59c7.14-1.61,5.26,3.44,5.97,4.18s5.79-2.09,4.18,5.97c-3.26-3.35-6.79-6.92-10.16-10.16Z"/>
  <path class="cls-11" d="M897.76,378.31c1.36-.33,1.26.75,1.6,1.66,1.16,3.09.33,12.55.2,16.59-.04,1.15.61,2.4-1.19,2.06-.11-6.72-.26-13.61-.6-20.31Z"/>
  <path class="cls-12" d="M883.43,525.86c3.66.81.72,1.97.32,3.01-.24.61-1.71,5.15-1.52,5.35.47.47,2.5-1.22,1.53,1.85-.65,2.03-2.28.65-3.05,1.7s.25,4.81-2.65,4.81c1.88-5.34,3.49-11.18,5.38-16.73Z"/>
  <path class="cls-11" d="M895.97,357.4l3.58-2.39c.42,1.61.96,3.25.47,4.93l-2.85,7.01c-.24-3.1-.89-6.45-1.19-9.56Z"/>
  <path class="cls-12" d="M860.13,301.85c.47,3.89,1.31,8.04,1.19,11.95-2.22.39-3.54-2.16-3.58-3.96-.03-1.33,1.01-1.92,1.16-2.94.21-1.4-.93-5.38,1.22-5.05Z"/>
  <path class="cls-12" d="M859.53,500.77c2.1,1.14,1.89,8.59.56,9.54-.33.23-2.2-.76-2.95-.58.69-3.35,1.67-5.98,2.39-8.96Z"/>
  <path class="cls-12" d="M862.52,580.22c-.81,2.52-1.53,5.16-2.11,7.75s.96,3.94-3.87,3.6c1.63-3.23,2.99-6.41,4.38-9.69.38-.89.17-2,1.59-1.66Z"/>
  <path class="cls-11" d="M864.31,352.62c.21,3.6.45,7.13.6,10.75-3.3-.68-3.1-5.41-.61-6.87-3.09-1.21-4.98-3.82.01-3.88Z"/>
  <path class="cls-11" d="M770.52,684.76c.01,2.24,1.04,3.08,1.18,4.52.19,1.98-1.8,4.14-3.58,2.97-1.65-1.08,1.45-3.68-1.18-3.31,1.09-1.48,1.8-3.3,3.58-4.18Z"/>
  <path class="cls-12" d="M714.37,98.14c.87.05,1.96-.6,2.62-.47.99.2,1.69,2.08,2.44,2.9.57.62,1.65.93,1.94,1.33.61.87.43,2.8.91,3.28.51.52,3.07.39,4.03,1.04,1.04.71.97,2.58,1.78,3.59,1.34,1.66,5.01,1.48,4.21,5.05-4.02-3.79-15.94-12.97-17.92-16.73-1.22-.08-1.89-.7-2.39-1.79,1.65.77,1.04-.76,2.39,1.79Z"/>
  <path class="cls-12" d="M843.4,616.06c-.28,2.01,2.93,1.51,2.38,2.68s-3.93,1.19-4.17,1.52c-.37.52.96,3.16.59,4.16l-3.58-1.19c1.44-2.9,3.5-5.1,4.78-7.17Z"/>
  <path class="cls-11" d="M871.48,417.74c.17-2.98.48-5.93.6-8.96,4.51,1.46,3.6,7.77-.6,8.96Z"/>
  <path class="cls-12" d="M867.3,463.73c.13,4.16.76,4.26,2.39,7.76-2.62-.49-2.83,2.08-4.78,2.4.44-2.69.88-5.34,1.22-8.06.14-1.12-.76-2.43,1.17-2.09Z"/>
  <path class="cls-11" d="M838.03,625.62c-.16,1.54,1.5,1.53,2,2.53,1.77,3.62-3.08,2.41-5.58,2.25.34-.51.4-2.17,1.53-3.57.86-1.06,2-1.11,2.06-1.21Z"/>
  <path class="cls-11" d="M698.84,70.67c2.14,1.86,4.01,3.61,5.97,5.38l-7.77-1.2c-.26-1.71,1.29-2.71,1.79-4.18Z"/>
  <path class="cls-11" d="M904.93,438.05v4.78c-.76-.08-4.58-.46-4.74-.63-.12-.13-.12-3.4,0-3.52.17-.17,3.98-.55,4.74-.63Z"/>
  <path class="cls-11" d="M723.33,93.96c-.91-.26-5.18-.41-5.37-.6-.24-.24-.39-5.34-1.2-6.57,2.8,2.75,4.16,3.95,6.57,7.17Z"/>
  <path class="cls-12" d="M777.1,139.36c2.35,1.28,4.35,3.14,5.86,5.78.62,1.09,1.91,2.58.71,3.77-.15-.22-.99-.53-1.46-1.21-1.81-2.64-3.89-5.36-5.11-8.35Z"/>
  <path class="cls-11" d="M707.2,78.43c2.43,2.23,5.36,4.87,7.77,7.17-4.68-.08-6.53-3.13-7.77-7.17Z"/>
  <path class="cls-12" d="M866.7,571.86l3.59,1.2c.75,4.05-3.24,2.77-5.98,3.58.17-.22,2.19-4.34,2.39-4.78Z"/>
  <path class="cls-11" d="M854.75,595.16c1.87,1.97.85,4.75,1.79,7.16l-4.78-1.79c.91-1.83,2.16-3.74,2.99-5.38Z"/>
  <path class="cls-12" d="M797.41,171.02c-.66-1.11-1.2-2.61-1.79-3.58,1.6.22,3.89-2.41,5.11-.63,1.67,2.44-1.07,4.2-3.32,4.21Z"/>
  <path class="cls-12" d="M813.53,228.37c1.85-.5.95,2.09,2.13,2.34.95.2,2.69-1.97,2.66,2.13-.01,1.3-.82,2.55-.61,3.89-1.27-2.8-4.1-4.69-4.18-8.36Z"/>
  <path class="cls-3" d="M897.17,443.42c1.92,3.38,1.29,6.61,1.79,10.15l-2.39-1.79c.21-2.74.42-5.77.6-8.36Z"/>
  <path class="cls-12" d="M819.51,214.03l2.98-1.79c.22,1.52-.74,2.92-.59,4.42.18,1.91,3.66,3.96,0,4.53-.23-2.31-2.26-4.99-2.39-7.17Z"/>
  <path class="cls-12" d="M849.38,350.23c2.56-1.3,2.83.39,4.14,2.15l-3.54,3.23c-.26-1.7-.66-3.7-.6-5.38Z"/>
  <path class="cls-12" d="M843.4,314.99c2.73.02,1.7,3.91,2.56,5.22.43.65,2.16.49,1.63,2.24l-2.39-.3c-.33-1.72-1.29-4.87-1.79-7.17Z"/>
  <path class="cls-12" d="M859.53,298.26l-3-.33c-.31-2.17.52-3.97,1.8-5.64.19,1.37.9,3.56,1.19,5.97Z"/>
  <path class="cls-12" d="M852.36,253.46c-1.86.5-.93-2.06-2.13-2.33-.59-.13-1.79.78-2.64.54l2.98-4.78c.34,1.63,1.46,4.13,1.79,6.57Z"/>
  <path class="cls-12" d="M861.92,490.62c.67.35,3.73-.87,3.48.79-.48,3.13-1.38,1.75-2.73,2.61-.86.55-.69,1.64-1.95,1.38.37-1.59.85-3.23,1.19-4.78Z"/>
  <path class="cls-11" d="M815.33,657.28c1.61-2.11,4.04-4.71,5.38-6.57-1.19,3.58-.28,7.68-5.38,6.57Z"/>
  <path class="cls-11" d="M871.48,423.11c3.21.85,1.19-2.91,1.8-3.58.34-.38,2.44.01,2.39,1.46-.06,1.84-2.78,4.86-4.79,5.1.09-1.21.55-2.33.6-2.99Z"/>
  <path class="cls-12" d="M868.49,452.38c2.71.55,2.45,3.09,2.39,5.37l-2.98-.6c.15-1.67.43-3.3.6-4.78Z"/>
  <path class="cls-12" d="M869.09,326.34c-.24-1.97-.97-4.44-1.19-6.57,3.55.63,3.87,4.56,1.19,6.57Z"/>
  <path class="cls-12" d="M765.75,125.03l4.78-.59-1.79,4.78c-1.98-1.88-1.85-2.71-2.99-4.18Z"/>
  <path class="cls-3" d="M854.75,246.89c-.39-1.91-1.42-4.56-1.79-7.17,3.16.19,2.94,5.11,1.79,7.17Z"/>
  <path class="cls-12" d="M826.68,258.84c-.59-1.59-1.7-3.62-2.39-5.38,4.56-.69,3.9,2.18,2.39,5.38Z"/>
  <path class="cls-3" d="M860.73,276.16c2.73.31,3.07,4.7,1.19,6.57-.4-2.1-.79-4.46-1.19-6.57Z"/>
  <path class="cls-12" d="M862.52,488.23c.36-1.68.92-3.91,1.19-5.38,1.2,2.75,3.41,5.83-1.19,5.38Z"/>
  <path class="cls-11" d="M845.79,544.98c.08-1.78,2.1-6.13,2.99-7.77,0,.55,1.18,2.06.5,3.15l-3.49,4.61Z"/>
  <path class="cls-11" d="M897.17,371.74c3.03-.04,3.31,5.31.6,5.38-.07-1.35-.47-3.56-.6-5.38Z"/>
  <path class="cls-12" d="M818.31,203.28c-.33,1.73.53,3.23-2.39,2.99-1.04-1.62-.77-2.73-1.19-3.58l3.58.6Z"/>
  <path class="cls-12" d="M873.27,555.73c.53.48,1.37,4.05,1.2,4.18-.19.15-1.37-.19-1.95.02-.63.23-.42,1.55-1.64,1.18.73-1.76,1.9-4.13,2.39-5.38Z"/>
  <path class="cls-11" d="M870.88,433.27c3.21.88,1.16-3.35,3.58-2.98l.61,4.47-4.19.31c.05-.59-.05-1.2,0-1.79Z"/>
  <path class="cls-11" d="M900.14,476.28c.66.56.64,5.89-1.77,5.37v-5.38c.49.08,1.62-.13,1.77,0Z"/>
  <path class="cls-11" d="M799.8,676.4c.61-.63,1.95-2.46,2.99-3.58.44,2.66-.31,6.99-2.99,3.58Z"/>
  <path class="cls-12" d="M828.47,264.81c-.32-.9-.38-1.79-.6-2.39,5.21-2.96,5.54,1.43.6,2.39Z"/>
  <path class="cls-12" d="M845.2,326.34l2.99.3c-.58,1.73-1.11,3.42-1.2,5.07-.96-1.59-1.45-3.55-1.79-5.38Z"/>
  <path class="cls-11" d="M762.16,120.84c-1.55-1.82-3.23-3.61-4.78-5.38,3.14-.58,4.56,2.74,4.78,5.38Z"/>
  <path class="cls-11" d="M898.36,410.57c.33.05,1.12-.1,1.19,0,.2.27.16,6.19.01,6.8-.16.7-.65.32-1.21.38.05-2.38-.01-4.79,0-7.17Z"/>
  <path class="cls-12" d="M725.12,96.35c2.61.61,3.93,2.83,5.38,4.78-2.92.15-4.12-3.02-5.38-4.78Z"/>
  <path class="cls-11" d="M869.69,442.23c2.21-.3,2.28,5.49-.6,5.38.19-1.8.41-3.58.6-5.38Z"/>
  <path class="cls-12" d="M707.8,92.77c1.73,1.57,2.5-4.28,3.89-1.8.86,1.55-2.67,1.77-1.5,4.18-1.23-.83-1.75-1.9-2.39-2.39Z"/>
  <path class="cls-12" d="M849.38,605.91c0,.4,1.01,1.39.49,2.27-.08.14-2.02,1.93-2.32,2.17-.41.34-1.05.24-1.15.33-.01-1.88,1.4-3.82,2.99-4.78Z"/>
  <path class="cls-3" d="M857.74,260.63c-.17-.82-.84-2.55-1.19-4.18,2.95-.37,3.12,2.56,1.19,4.18Z"/>
  <path class="cls-3" d="M863.12,289.3h2.39c-.04,1.39.06,3.95-1.79,3.58-.22-1.14-.38-2.4-.6-3.58Z"/>
  <path class="cls-12" d="M869.09,565.88c1.22,2.27,1.39,5.02-1.79,4.18.6-1.32,1.23-2.84,1.79-4.18Z"/>
  <path class="cls-12" d="M846.99,335.3c1.59-.46,3.7,6.26,1.19,5.38-.25-1.52-1.08-3.75-1.19-5.38Z"/>
  <path class="cls-12" d="M679.13,71.26c-1.41-.98-2.89-2.11-4.18-2.99,2.71-.18,4.66-.36,4.18,2.99Z"/>
  <path class="cls-12" d="M819.51,242.11l2.98-1.79-1.79,3.58c-.04-.1-.72-.72-1.19-1.79Z"/>
  <path class="cls-12" d="M848.78,343.66c3.22-.49,1.54,1.71,1.19,3.58-2.07.49-.93-1.94-1.19-3.58Z"/>
  <path class="cls-12" d="M867.9,458.96c2.88.51,2.56,3.15-.6,2.39.04-1.27.58-2.09.6-2.39Z"/>
  <path class="cls-12" d="M861.92,318.57c-2.64.45-.65-3.17-.6-4.18,1.04.81.59,2.87.6,4.18Z"/>
  <path class="cls-11" d="M862.52,343.66v2.99c-1.77.18-1.96-1.43-1.79-2.98h1.79Z"/>
  <path class="cls-11" d="M851.17,366.36c1.6-.54,2.43,3.14.6,3.58-.03-.62-.5-2.24-.6-3.58Z"/>
  <path class="cls-12" d="M887.61,371.14c.04,1.39-.03,2.79,0,4.18-.37.07-.92-.11-1.19,0,.27-1.72-.92-4.7,1.19-4.18Z"/>
  <path class="cls-12" d="M836.83,288.71l2.39.6c.22,1.2-.68,1.76-1.79,1.79-.26-.88-.4-1.72-.6-2.39Z"/>
  <path class="cls-3" d="M890.6,495.99c-.02.61,1.62,3.76-1.19,3.58.22-1.17.39-2.68,1.19-3.58Z"/>
  <rect class="cls-11" x="872.68" y="343.66" width="1.79" height="2.39"/>
  <path class="cls-3" d="M848.78,234.34c0-.12-1.42-1.12.38-1.72,2.47-.82,1.72.43,2.01,1.12l-2.39.6Z"/>
  <path class="cls-3" d="M864.31,295.28c1.84-.56,1.18,2.54.6,3.58-.25-1.28-.38-2.39-.6-3.58Z"/>
  <path class="cls-11" d="M812.93,668.03c-.45.45-2.42.28-1.78-1.48.74-2.06,2.57.7,1.78,1.48Z"/>
  <path class="cls-3" d="M892.99,481.06c.07.92,1.97,3.35-.6,2.99.11-.93-.43-2.47.6-2.99Z"/>
  <path class="cls-12" d="M820.7,225.38c-.71,1.22-.69,3.25-2.39.6.12-.02,1.43-1.14,2.39-.6Z"/>
  <path class="cls-3" d="M894.18,476.28c0,.59,1.15,2.64-1.19,2.39.04-1.51-.57-2.76,1.19-2.39Z"/>
  <path class="cls-12" d="M792.03,161.47c2.07-.37,3.71,2.03,1.19,1.79-.35-.56-.8-1.17-1.19-1.79Z"/>
  <path class="cls-12" d="M894.18,470.9c1.76-.76,1.95,3.58,0,2.99.05-.99-.09-2.01,0-2.99Z"/>
  <path class="cls-12" d="M819.51,212.84c-1.12.37-1.61-.85-1.79-1.79,3.27-.05,1.79,1.04,1.79,1.79Z"/>
  <rect class="cls-11" x="759.18" y="113.08" width="2.38" height="1.19"/>
  <path class="cls-11" d="M845.79,546.17c.13,1.03,1.97,2.1-1.19,1.79.22-.83.12-1.5,1.19-1.79Z"/>
  <path class="cls-3" d="M888.8,504.95c.04.53,1.83,2.09-.6,1.79.15-.56-.23-1.42.6-1.79Z"/>
  <path class="cls-12" d="M895.37,466.72c.03.5,1.83,2.09-.6,1.79.12-.6-.24-1.46.6-1.79Z"/>
  <rect class="cls-11" x="849.98" y="540.8" width="1.79" height="1.19"/>
  <path class="cls-3" d="M866.7,312c2.42-.29.66,1.22.6,1.79-.78-.29-.57-1.14-.6-1.79Z"/>
  <path class="cls-12" d="M885.22,521.08c-.21,2.99-.41,1.2-1.19,1.79-.04-1.4-.39-2.08,1.19-1.79Z"/>
  <rect class="cls-11" x="854.76" y="371.15" width="1.19" height="1.79"/>
  <path class="cls-12" d="M886.41,516.3c-.21,3.11-.84,1.31-1.19,1.79,0-.88.33-1.53,1.19-1.79Z"/>
  <path class="cls-12" d="M770.52,131c.13.1.86-.21,1.12.07.34.37-.07,1.43.07,1.72-.86-.26-1.19-.92-1.19-1.79Z"/>
  <path class="cls-12" d="M816.52,207.46c.78.65.83-1.24,1.19,1.79l-1.19-1.79Z"/>
  <path class="cls-3" d="M851.77,236.14c.07.09.85-.06,1.19,0,.24.63-.58,1.11-.59,1.19l-.6-1.19Z"/>
  <path class="cls-11" d="M764.55,118.46c.65.65-.54,1.84-1.19,1.19s.54-1.84,1.19-1.19Z"/>
  <path class="cls-12" d="M732.29,103.52c1.07-.22,1.36.15,1.19,1.19-.2-.14-1.04.15-1.19,0s.12-.89,0-1.19Z"/>
  <path class="cls-12" d="M853.56,260.03c-.19-.14-1.06.13-1.19,0-.37-.37.59-1.12.59-1.19l.6,1.19Z"/>
  <path class="cls-12" d="M731.1,101.73c1.27-.14,1.34-.07,1.19,1.19-.18-.1-.85.21-1.13-.08-.26-.26.03-.97-.07-1.12Z"/>
  <path class="cls-3" d="M866.1,306.63c.17.14,1.06-.13,1.19,0,.38.38-.59,1.12-.59,1.19l-.6-1.19Z"/>
  <path class="cls-12" d="M849.97,357.4c.1.1.85-.07,1.19,0,.24.63-.59,1.12-.59,1.19l-.6-1.19Z"/>
  <path class="cls-11" d="M12.46,424.91c.65.65-.54,1.84-1.19,1.19s.54-1.84,1.19-1.19Z"/>
  <path class="cls-11" d="M878.65,480.46c.65.65-.54,1.84-1.19,1.19s.54-1.84,1.19-1.19Z"/>
  <path class="cls-1" d="M597.88,228.37l-47.52-31.05c-1.82-2.81,8.36-14.04,10.81-16.12,7.48-6.34,15.62-9.16,25.39-6.9,24.45,5.66,17.6,36.94,11.33,54.08Z"/>
  <path class="cls-7" d="M424.19,309.76c-.38,1-.63,2.08-.73,3.15-2.08,21.92-2.25,48.08,1.29,69.79.56,3.44,1.94,12.81,4.05,15.07,3.8,4.07,10.6,5.48,15.26,2.06.95-.7,6.55-7.31,5.67-2.7-.96,5.06-9.62,8.09-14.36,7.21-2.74-.51-7.05-3.93-8.05-3.9-1.11.03-4.66,5.49-9.51,5.39-2.9-.06-11.68-4.56-11.7-7.48,0-1.13.99-1.77,2.05-1.44.33.1,2.92,3.61,4.95,4.61,4.18,2.06,11.13,1.17,12.05-3.92.28-1.55-2.96-13.07-3.41-16.07-2.56-17.07-2.48-37.56-1.9-54.9.19-5.71,2-12.46.63-17.91-6.51-3.26-24.63-14.44-18.53-23.29,6.56-9.51,30.14-10.8,40.01-7.15,7.47,2.76,8.63,6.92,4.9,13.83-4.33,8.03-14.2,14.74-22.67,17.66Z"/>
  <path class="cls-1" d="M298.61,214.03c-4.1-12.93-5.85-34.79,8.73-41.74,13.95-6.65,26.96,1.08,35.45,12.19,1.4,1.84,4.83,5.51,2.36,7.11-4.03,2.61-10.62,4.79-15.11,6.99-9.95,4.87-19.9,9.85-29.61,15.2l-1.82.26Z"/>
  <path class="cls-13" d="M269.33,183.57c.25.77-.64,1.47,1.19,1.19-.46,11.17.68,20.5,5.46,30.68,2.2,4.69,5.89,8.92,7.58,13.68-16.41,22.79-26.99,49.67-33.65,76.91-2.76,11.27-5.45,24.07-6.87,35.57-.12,1.01.63,2.29-1.19,2.07-.14-.18-1.65.61-1.19-1.19.08-.52.02-1.24,0-1.79-.07-1.03.5-2.05.6-2.99,2.28-22.1,8.67-45.31,16.26-65.31,3.84-10.13,8.69-20.65,14.39-30.41,2.66-4.55,5.58-8.99,8.63-13.29-.84-1.81-2.32-3.18-3.32-4.91-6.76-11.7-11.19-25.77-9.08-39.61.34-.24.92-.35,1.19-.6Z"/>
  <path class="cls-13" d="M268.73,182.37c1.06-5.15,1.77-8.08,4.14-12.44.77-1.42,1.17-4.62,1.33-4.81s1.13.12,1.73-.45c1.03-.99,2.82-4.93,3.74-5.98,13.26-15.06,32.69-22.94,52.97-17.83,5.38,1.36,10.86,3.58,14.61,6.27,11.67,8.39,17.33,15.48,21.4,29.4.65,2.22,1.24,4.74,1.33,7.05,1.37-.16,2.72-.77,4-1.26,38.41-14.61,83.61-11.19,123.67-3.36l28.12,7.52c1.86-.46,2.65-4.6,3.45-6.02,2.09-3.68,5.83-9.54,8.51-12.82,22.63-27.59,57.16-28.35,83.71-6.16,2.55,2.13,5.86,6.97,7.76,8.39.73.55,2.01.49,2.11.59.06.06-.57.91-.29,1.72.47,1.37,3.06,4.73,3.99,6.81,1.59,3.55,2.37,6.48,3.52,10.11.16.5,1.14.45,1.15.81.06,10.16,1.14,16.28-1.19,27.13-.09.43-.03,1.28,0,1.79.01.2-.03.41,0,.6l-.6,1.19c-.3.38.65,2.14.49,2.32-.2.21-1.01-.02-1.09.07-.64.09-1.23.28-1.79.6,2.49-15.05,3.5-30.58-3.48-44.61s-25.05-25.77-40.61-29.29c-30.29-6.84-51.83,15.31-63.79,40.37-51.38-15.94-109.21-22.77-160.35-2.32-1.06-37.87-43.91-58.8-74.86-36.33-7.63,5.54-14.24,13.2-18.25,21.78-.62,1.34-1.98,6.37-2.47,6.78-.15.13-1.02-.16-1.19,0-.43.43.58,1.12.59,1.19.06.34,0,.82,0,1.19-1.17-.29-1.25.71-1.79,1.19-.14-.44.07-1.03-.6-1.19Z"/>
  <path class="cls-13" d="M632.53,236.14l-.6,1.19c-.76,2.02-1.58,5.07-2.63,6.94-1.51,2.66-7.72,7.86-6.72,10.58.49,1.33,2.93,3.97,3.86,5.59,23.42,40.83,34.09,88.45,37.74,135.49,2.12,27.29.46,55.12,2.39,82.44,3.5,49.35,15.06,99.45,30.3,146.52.65,2,3.84,13.35,4.35,13.87l.6,1.19c-.01.76.48,1.27.6,1.79,3.08,13.28,10.37,28.59,14.93,41.82l-.3.59h-.89c.55-2.2-1.11-1.68-1.2-1.79-3.74-4.83-11.24-28.29-13.76-35.52-16.87-48.45-30.96-101.8-36.41-152.95-3.6-33.79-.81-67.33-3.59-100.94-3.97-47.83-15.76-99.33-42.96-139.28,1.86-2.67,4.18-4.86,6.06-7.55,2.83-4.04,3.96-8.23,7.63-11.18.43-.35.75-.86,1.19-1.19.39,1.11-.34,1.69-.6,2.39Z"/>
  <path class="cls-1" d="M539.73,299.67c5.94,5.68,5.72,17.69-.93,22.82-13.1,10.12-30.69-4.04-23.47-18.68,4.38-8.87,17.34-10.9,24.4-4.15Z"/>
  <path class="cls-1" d="M343.19,299.67c6.38,6.32,5.86,18.14-1.65,23.32-12.46,8.59-28.4-3.61-23.27-17.89,3.58-9.98,17.65-12.62,24.91-5.42Z"/>
  <path class="cls-5" d="M464.53,496.73c-.2,1.8.96,2.99,1.31,4.37,1.1,4.24,3.08,12.11,3.55,16.76.16,1.6.33,9.67-.2,10.43-.68.98-3.89.78-4.87.02-1.06-.82-4.02-10.07-4.27-11.86-.28-2.01.06-3.94-.16-5.81-.56-4.62-4.46-18.96,4.64-13.91Z"/>
  <path class="cls-5" d="M419.08,213.28c-1.25,2.78-1.66,5.75-2.83,8.79-1.85,4.83-6.6,4.38-7.17.06-1.12-8.48,3.52-17.44,5.73-25.39,5.17-4.16,7.7-.9,6.8,5.01-.18,1.21-2.3,10.98-2.54,11.53Z"/>
  <path class="cls-5" d="M612.68,801.39l2.5,8.55c-.38,3.59,1.94,15.93-3.84,15.24-3.03-.36-3.21-3.75-5.68-5.24-.18-1.11.2-2.37-.04-3.44-.98-4.45-3.05-7.06-2.39-12.01.57-4.3,6.21-5.97,9.45-3.11Z"/>
  <path class="cls-5" d="M539.81,458.83c-1.03,1.76-4.07,2.15-5.68.56-1.81-1.8-3.54-14.36-3.74-17.46-.1-1.49-.24-9.07.12-9.72.13-.24,2.16-1.24,2.6-1.31,5.72-.9,5.22,6.51,5.79,10.28.19,1.23.89,2.29,1.04,3.74.17,1.63.21,13.32-.14,13.92Z"/>
  <path class="cls-5" d="M429.92,772.68c1.87,1.13.89,7.31,1.31,9.04.11.46,1.07.37,1.17.82.94,4.13,1.25,10.47-.36,14.47s-5.83,1.55-6.65-1.58c-.34-1.32-1.22-6.2-1.34-7.62-.22-2.45-.52-14.07,1.32-15.11.52-.29,4.1-.31,4.55-.03Z"/>
  <path class="cls-5" d="M635.71,754.81c.6-1.86,4.18-1.46,5.49-.17,2.34,7.91,4.87,15.76,3.84,24.17-.06.47-1.33,5.44-1.46,5.71-1.24,2.59-3.8,1.26-4.33-1.64-.88-4.81-.59-11.53-1.4-16.52-.56-3.39-3.09-8.56-2.13-11.55Z"/>
  <path class="cls-5" d="M543.36,696.28c.44.7.55,2.99.93,4.16,1.22,3.76,2.15,6.7,2.25,10.88.04,1.65-.29,9.58-1.17,10.22-.79.57-2.62.44-3.35-.32-1.54-1.59-2.8-10.54-3.44-13.29-.83-3.56-3.18-7.02-2.09-10.8.81-2.82,5.64-2.81,6.87-.86Z"/>
  <path class="cls-5" d="M272.23,419.02c.35,2.62-.16,5.34.09,7.96.49,5.01,3.43,15.99,2.4,20.22-.31,1.29-3.43,1.1-4.47-.24-1.63-2.09-3.7-9.99-3.94-12.78-.18-2.03-.32-13.02.11-14.28.53-1.56,4.52-1.91,5.81-.89Z"/>
  <path class="cls-5" d="M632.53,519.29c-5.8.75-4.82-.67-6.81-4.56s-4.33-9.07-4.98-13.82c-.77-5.65.62-6.79,6.1-4.91,3.04,7.48,6.24,15.02,5.69,23.29Z"/>
  <path class="cls-5" d="M536.29,583.74c-.09.1-2.22.57-2.63.56-3.06-.09-3.41-1.99-4.47-4.38-1.26-2.84-5.18-13.69-5.24-16.3-.1-4.23,5.05-5.55,7.26-1.25,1.17,2.27,4.59,12.25,5,14.71.17,1.02.37,6.33.07,6.66Z"/>
  <path class="cls-5" d="M612.06,634.09c1.92-.56,2.96.24,3.99,1.74s4.55,12.76,4.87,14.85c.4,2.6,1.28,8.57-2.53,8.9-1.03.09-2.52-1.85-3.03-2.75-1.55-2.74-4.22-11.61-4.87-14.84-.48-2.43-1.67-6.95,1.56-7.89Z"/>
  <path class="cls-5" d="M377.86,608.45c5.17-.16,2.37,9.85,3.81,13.27-.8,3.01.67,11.86-3.34,12.28-4.46.46-4.35-5.65-4.49-8.65-.12-2.56-.17-5.88,0-8.41.21-3.22.08-8.37,4.01-8.49Z"/>
  <path class="cls-5" d="M337.88,527.83c.12.04,1.34,1.54,1.39,1.89.38,3.04.3,11.23-.09,14.31-.44,3.48-2.44,10.88-7.11,7.2-1.85-1.46-1.38-7.57-1.14-10.08.18-1.95,1.8-10.33,2.66-11.68s2.79-2.19,4.3-1.65Z"/>
  <path class="cls-5" d="M315.52,663.69c.04.16.91-.03,1.05,1.02.27,2.06.73,10.65.49,12.54-.3,2.31-1.29,2.74-3.71,2.15-.44-.11-2.51-5.43-2.74-6.34-.92-3.61-2.02-10.6-2.37-14.35-.19-2.06-.56-6.03,2.14-6.71,4.28-1.08,4.53,8.9,5.14,11.7Z"/>
  <path class="cls-5" d="M689.28,736.73c-.1.15-3.08,1.17-3.29,1.17-3.31-.09-2.35-3.07-2.96-4.78-1.5-4.2-4.29-8.02-5.77-12.25,1.93-2.17.56-4,4.56-3.88,1.54.05,2.57.66,3.54,1.83.38.46,3.91,7.02,3.91,7.44,0,1.58.29,10.02,0,10.45Z"/>
  <path class="cls-5" d="M426.59,669.98c1.15-1.09,3.6-.96,4.96-.18,3.37,1.93,3.96,11.17,3.11,14.52-.26,1.01-4.06,5.77-4.94,5.85-1.33.13-3.02-.71-3.28-2.12-.62-3.42.29-8.81.04-12.58-.13-1.9-2.23-3.26.12-5.49Z"/>
  <path class="cls-5" d="M286.86,541.78c-2.52-2.98-1.23-18.19,1.41-18.91,1.67-.46,5.05-.03,6.08,1.56,1.61,2.49-.16,3.18-.4,4.85-.37,2.59-1.13,19.56-7.09,12.5Z"/>
  <path class="cls-5" d="M459.89,200c.32-1.05,6.74-2.78,7.2,2.35.29,3.19.28,11.25,0,14.4-.67,7.46-7.2,2.39-7.2-.03,0-3.29-.66-14.58,0-16.73Z"/>
  <path class="cls-5" d="M572.33,482.12c-.11-.16-1.19-3.38-1.28-3.79-.69-3.19-1.67-10.67-1.26-13.72.56-4.26,6.3-3.22,7.07.15.72,3.14,1.7,12.98,1.35,16.03-.38,3.28-5.26,2.23-5.87,1.33Z"/>
  <path class="cls-5" d="M440.63,908.02c-2.81,3.29-6.01-4.37-6.72-6.41-.37-1.04-.16-2.18-.45-3.13-.95-3.12-4.55-8.88.13-10.34,2.73-.85,5.01-.35,5.85,2.57.73,2.54,1.83,8.61,1.94,11.21.06,1.39.09,5.14-.74,6.11Z"/>
  <path class="cls-5" d="M534.09,864.44c-.3-.17-1.05-2.05-1.27-2.6-1.79-4.51-3.2-14.24-3.08-19.08.1-4.02,2.2-4.48,5.12-2.08.49,5.82,4.37,17.59,2.61,22.91-.37,1.12-2.48,1.36-3.38.85Z"/>
  <path class="cls-5" d="M336.56,447.35c-.07.18-.74.23-.88.7-.85,2.89-.36,11.56-4,11.94-5.14.54-3.93-9.85-3.02-13.1.99-3.56,5.28-11.76,8.81-5.59,1.55,2.71-.04,3.82-.89,6.05Z"/>
  <path class="cls-5" d="M609.23,332.91c-1.86-.09-4.65.5-6.01-1.03-3.12-3.51-6.86-20.4,1.96-16.14,2.22,1.07,1.5,3.76,2.84,6,.34.57,1.2.35,1.2.41v10.75Z"/>
  <path class="cls-8" d="M361.32,263.61c-1.36,1.34-4.12-2.04-4.93-2.57-10.17-6.65-16.24-7.06-26.93-.92-1.44.83-2.7,2.79-4.42,3.34-3.33,1.06-1.71-1.94-.54-3.23,6.83-7.53,20.48-8.77,29.25-4.29,1.37.7,9.54,5.71,7.57,7.66Z"/>
  <path class="cls-13" d="M503.5,271.38c-1.66-1.65,3.64-5.05,4.7-5.75,9.77-6.41,20.91-6.24,30.14,1.08.93.74,5.12,3.96,2.46,4.67-1.92.51-4.23-2.72-5.8-3.73-7.05-4.51-13.52-5.25-21.35-1.93-2.04.86-9.17,6.65-10.16,5.66Z"/>
  <path class="cls-5" d="M445.56,218.22c-.14.22-3.18,1.3-3.9,1.27-.92-.04-.77-.8-1.37-1.22-.33-.23-1.3.02-1.3-.05v-10.45c0-.24.62-4.33.71-4.66.87-3.16,5.86-1.18,5.86,1.08,0,2.01.37,13.44,0,14.04Z"/>
  <path class="cls-5" d="M377.37,814.31c-.32.2-3.38.21-3.5.09-.18-.18.19-2.35,0-3.18-.28-1.19-2.03-5.22-2.35-7.31-.23-1.53-.89-7.72-.34-8.64,1.29-2.13,4.37-.78,4.95,1.63.73,3,1.89,10.59,1.97,13.61.02.78-.25,3.5-.73,3.8Z"/>
  <path class="cls-8" d="M637.31,222.99c-.24.32-1.64,6.35-2.11,7.77-.19.56.26,1.25.12,1.66-.17.54-2,1.18-2.19,1.32-.44.33-.76.85-1.19,1.19-1.28-3.76,2.35-7.12,2.41-10.91.28-.69.99-.33,1.17-.44.56-.32,1.15-.51,1.79-.6Z"/>
  <path class="cls-8" d="M240.66,342.47c-.46,1.81,1.05,1.01,1.19,1.19.15.2-.07,2.29,0,2.99l-.59.3.59.3c.11,2.56,0,3.84-.6,6.57-2.45.54-.21-2.94-1.79-4.18.31-2.82.85-4.81,1.19-7.17Z"/>
  <path class="cls-8" d="M714.97,682.37c.08.11,1.75-.41,1.2,1.79h.89s.3-.6.3-.6c.31.91,1.6,2.41,1.68,3.4.07.92-.94,1.44-1.08,1.98-.04.16,0,.4,0,.6-1.58-1.86-2.58-4.75-2.99-7.17Z"/>
  <path class="cls-8" d="M271.12,182.37c-.03,1.24-.59,2.19-.6,2.39-1.83.27-.94-.43-1.19-1.19.54-.48.62-1.49,1.79-1.19Z"/>
  <path class="cls-8" d="M269.33,183.57c-.27.24-.86.36-1.19.6.14-.93.52-1.42.6-1.79.67.16.46.76.6,1.19Z"/>
  <path class="cls-8" d="M240.06,365.17c-.13,1.16-.54,2.42-.6,2.99-1.04-1.01-1.14-3.57.6-2.99Z"/>
  <path class="cls-8" d="M240.66,358c-1.41-.53-.09-1.47,0-1.79,1.41.53.09,1.48,0,1.79Z"/>
  <path class="cls-8" d="M271.72,179.98l-.6,1.19c-.01-.07-1.02-.75-.59-1.19.17-.17,1.04.12,1.19,0Z"/>
  <path class="cls-13" d="M241.85,347.25l-.59-.3.59-.3c.02.2,0,.4,0,.6Z"/>
  <path class="cls-5" d="M248.19,868.36c-2.61-6.07-2.24-11.38-3.38-17.8-.69-3.87-2.7-8.25-2.96-12.59-.33-5.6,4.22-5.87,6.4-1.61,1.88,3.68,5.77,17.22,6.13,21.35.25,2.88.91,15.46-4.35,13.95-1.61-.46-1.33-2.1-1.85-3.29Z"/>
  <path class="cls-5" d="M134.79,846.77l.46,19.03c.1,3.19-5.57,3.03-6.93,1.49-.23-.26-2.87-5.11-2.93-5.43-.28-1.52-.35-12.89-.04-14.19.48-1.98,7.81-3.28,9.44-.89Z"/>
  <path class="cls-5" d="M125.88,700.98c1.37.86-.42,13.32-.54,15.72-.16,3.47.17,7.01.03,10.48-3.22-.14-4.56,1.12-5.78-2.28s-.82-13.85-.16-17.7c.13-.78,2.04-5.36,2.61-5.76.84-.59,3.1-.93,3.85-.47Z"/>
  <path class="cls-5" d="M208.23,662.78c2.3-.7,5.05.85,5.53,3.19s1.49,10.41,1.17,12.49c-.96,6.34-6.7,5.74-8.17-.12-.33-1.3-1.16-5.21-1.32-6.45-.36-2.83-.58-8.09,2.78-9.11Z"/>
  <path class="cls-5" d="M187.31,934.89c-1.65,2.04-4.8,1.81-5.96-.59-1.25-2.6-2.77-12.26-2.23-15.07.62-3.23,7.11-4.11,8.24.73.62,2.64,1.43,13.1-.06,14.94Z"/>
  <path class="cls-5" d="M191.27,684c.06.19.91-.03,1.05,1.02.48,3.6-.19,8.74-.07,12.61.06,1.84,1.96,6.66-.88,6.89-2.7.22-2.14-1.94-2.74-3.15-.3-.61-1.05-.33-1.18-1.34-.37-2.86-.23-16.16.98-18.21,2.21-3.73,2.39.89,2.84,2.18Z"/>
  <path class="cls-5" d="M230.44,756.54c.19.17,1.75,4.06,2.26,4.57.26,3.25,1.89,5.35,1.34,8.75-.71,4.4-4.3,2.63-5.87-.03-.5-.85-3.05-9.87-3-10.74.12-1.96,4.28-3.44,5.27-2.54Z"/>
  <path class="cls-5" d="M178.24,827.54c2.82-.6,1.95,9.37,2.11,11.02.11,1.09,1.02,1.96,1.13,3.05.16,1.65.51,9.4-.89,9.82-2.19.65-3.68-4.68-3.89-6.24-.33-2.44-.38-13.31.05-15.55.13-.69.92-1.98,1.49-2.1Z"/>
  <path class="cls-5" d="M154.04,734.34h3.59c-.92,2.56,2.65,15.72,1.11,16.65-2.27,1.36-4.7-2.49-4.7-3.8v-12.84Z"/>
  <path class="cls-8" d="M237.07,628.01l1.79.9-1.19.3c-.11-.31-.42-.73-.6-1.19Z"/>
  <path class="cls-8" d="M241.26,337.69c-.1.94-.66,1.96-.6,2.99-.03-.83-2-3.37.6-2.99Z"/>
  <path class="cls-8" d="M638.51,217.02c1.92-.31,1.5,1.16,0,1.79-.03-.51-.09-1.36,0-1.79Z"/>
  <path class="cls-8" d="M638.51,219.41c.01.07.86.47.59,1.19-.34.07-1.11-.09-1.19,0l.6-1.19Z"/>
  <path class="cls-11" d="M701.23,638.76c.11.11.84-.07,1.19,0,.22.56-.59,1.09-.59,1.19l-.6-1.19Z"/>
  <path class="cls-8" d="M631.93,237.33l.6-1.19c-.2.55-.5.94-.6,1.19Z"/>
  <path class="cls-11" d="M110.43,174c-.87.1-3.54.91-4.01,1.36s-.86,4.48-2.55,2.83c-1.26-1.22,1.78-7.37,3.3-7.77.84-.22,3.83,2.96,3.27,3.58Z"/>
  <path class="cls-11" d="M111.05,169.2c-.55-.79.42-4.2,2.97-2.66,3.59,2.16-1.57,4.69-2.97,2.66Z"/>
  <path class="cls-11" d="M123.48,156.78c1.59.95.25,5.67-1.69,4.09-.33-.27-1.72-6.12,1.69-4.09Z"/>
  <path class="cls-11" d="M116.49,164.37c-.31-.37.02-1.66-.08-2.31,1-.07,3.23-.21,3.58.9.77,2.47-2.91,2.09-3.5,1.41Z"/>
  <path class="cls-11" d="M75.78,214.03l.61,2.98-2.99.6c-.25-1.68.39-3.6,2.38-3.58Z"/>
  <path class="cls-11" d="M91.27,196.17c1.59,2.58-3.66,2.33-3.53-.65.26-.23,3.36.37,3.53.65Z"/>
  <path class="cls-11" d="M47.7,260.03c-1.14-.03-3.44-.28-2.98-1.48.74-1.93,3.2-.11,2.98,1.48Z"/>
  <path class="cls-11" d="M85.34,200.3c.27,1.87-.58,2.65-2.38,2.38-.41-1.11,1.87-2.93,2.38-2.38Z"/>
  <path class="cls-11" d="M96.09,181.18c.74.63,1.36,1.38,1.19,2.39-1.98.21-1.94.11-1.79-1.79.18-.22.42-.38.6-.6Z"/>
  <rect class="cls-11" x="12.47" y="389.07" width="1.19" height="2.38"/>
  <rect class="cls-11" x="66.23" y="223" width="1.19" height="1.79"/>
  <path class="cls-11" d="M94.9,184.77c.65.65-.54,1.84-1.19,1.19s.54-1.84,1.19-1.19Z"/>
  <path class="cls-11" d="M171.36,104.72l.59.3c.24,1.89-1.08.28-1.19.29.19-.21.4-.39.6-.6Z"/>
  <path class="cls-11" d="M829.07,611.28c-1.47,2.48-2.6,5.19-4.18,7.77-1.74.04-1.9.46-1.82-1.49.2-4.62.24-8.83,6-6.27Z"/>
  <path class="cls-11" d="M836.24,599.34c-.8,1.4-1.59,2.79-2.39,4.18-1.76.34-1.21-.93-1.2-2.07,0-2.18-.41-6.14,2.62-5.03,1.23.45,1.01,1.93.97,2.92Z"/>
  <path class="cls-11" d="M883.43,460.75c-.09.78.09,1.61,0,2.39-1.93.55-1.78-3.04,0-2.39Z"/>
</svg>