<?xml version="1.0" encoding="UTF-8"?>
<svg id="Layer_1" data-name="Layer 1" xmlns="http://www.w3.org/2000/svg" viewBox="0 0 610.53 621.7">
  <defs>
    <style>
      .cls-1 {
        fill: none;
      }

      .cls-2 {
        fill: #f8ccd7;
      }

      .cls-3 {
        fill: #fae9d9;
      }

      .cls-4 {
        fill: #636363;
      }

      .cls-5 {
        fill: #7b7772;
      }

      .cls-6 {
        fill: #f4dacb;
      }

      .cls-7 {
        fill: #6e6965;
      }
    </style>
  </defs>
  <path class="cls-2" d="M451.73,210.11l-47.52-31.05c-1.82-2.81,8.36-14.04,10.81-16.12,7.48-6.34,15.62-9.16,25.39-6.9,24.45,5.66,17.6,36.94,11.33,54.08Z"/>
  <path class="cls-4" d="M278.05,291.5c-.38,1-.63,2.08-.73,3.15-2.08,21.92-2.25,48.08,1.29,69.79.56,3.44,1.94,12.81,4.05,15.07,3.8,4.07,10.6,5.48,15.26,2.06.95-.7,6.55-7.31,5.67-2.7-.96,5.06-9.62,8.09-14.36,7.21-2.74-.51-7.05-3.93-8.05-3.9-1.11.03-4.66,5.49-9.51,5.39-2.9-.06-11.68-4.56-11.7-7.48,0-1.13.99-1.77,2.05-1.44.33.1,2.92,3.61,4.95,4.61,4.18,2.06,11.13,1.17,12.05-3.92.28-1.55-2.96-13.07-3.41-16.07-2.56-17.07-2.48-37.56-1.9-54.9.19-5.71,2-12.46.63-17.91-6.51-3.26-24.63-14.44-18.53-23.29,6.56-9.51,30.14-10.8,40.01-7.15,7.47,2.76,8.63,6.92,4.9,13.83-4.33,8.03-14.2,14.74-22.67,17.66Z"/>
  <path class="cls-2" d="M152.47,195.77c-4.1-12.93-5.85-34.79,8.73-41.74,13.95-6.65,26.96,1.08,35.45,12.19,1.4,1.84,4.83,5.51,2.36,7.11-4.03,2.61-10.62,4.79-15.11,6.99-9.95,4.87-19.9,9.85-29.61,15.2l-1.82.26Z"/>
  <path class="cls-7" d="M123.19,165.31c.25.77-.64,1.47,1.19,1.19-.46,11.17.68,20.5,5.46,30.68,2.2,4.69,5.89,8.92,7.58,13.68-16.41,22.79-26.99,49.67-33.65,76.91-2.76,11.27-5.45,24.07-6.87,35.57-.12,1.01.63,2.29-1.19,2.07-.14-.18-1.65.61-1.19-1.19.08-.52.02-1.24,0-1.79-.07-1.03.5-2.05.6-2.99,2.28-22.1,8.67-45.31,16.26-65.31,3.84-10.13,8.69-20.65,14.39-30.41,2.66-4.55,5.58-8.99,8.63-13.29-.84-1.81-2.32-3.18-3.32-4.91-6.76-11.7-11.19-25.77-9.08-39.61.34-.24.92-.35,1.19-.6Z"/>
  <path class="cls-7" d="M122.59,164.11c1.06-5.15,1.77-8.08,4.14-12.44.77-1.42,1.17-4.62,1.33-4.81s1.13.12,1.73-.45c1.03-.99,2.82-4.93,3.74-5.98,13.26-15.06,32.69-22.94,52.97-17.83,5.38,1.36,10.86,3.58,14.61,6.27,11.67,8.39,17.33,15.48,21.4,29.4.65,2.22,1.24,4.74,1.33,7.05,1.37-.16,2.72-.77,4-1.26,38.41-14.61,83.61-11.19,123.67-3.36l28.12,7.52c1.86-.46,2.65-4.6,3.45-6.02,2.09-3.68,5.83-9.54,8.51-12.82,22.63-27.59,57.16-28.35,83.71-6.16,2.55,2.13,5.86,6.97,7.76,8.39.73.55,2.01.49,2.11.59.06.06-.57.91-.29,1.72.47,1.37,3.06,4.73,3.99,6.81,1.59,3.55,2.37,6.48,3.52,10.11.16.5,1.14.45,1.15.81.06,10.16,1.14,16.28-1.19,27.13-.09.43-.03,1.28,0,1.79.01.2-.03.41,0,.6l-.6,1.19c-.3.38.65,2.14.49,2.32-.2.21-1.01-.02-1.09.07-.64.09-1.23.28-1.79.6,2.49-15.05,3.5-30.58-3.48-44.61s-25.05-25.77-40.61-29.29c-30.29-6.84-51.83,15.31-63.79,40.37-51.38-15.94-109.21-22.77-160.35-2.32-1.06-37.87-43.91-58.8-74.86-36.33-7.63,5.54-14.24,13.2-18.25,21.78-.62,1.34-1.98,6.37-2.47,6.78-.15.13-1.02-.16-1.19,0-.43.43.58,1.12.59,1.19.06.34,0,.82,0,1.19-1.17-.29-1.25.71-1.79,1.19-.14-.44.07-1.03-.6-1.19Z"/>
  <path class="cls-7" d="M518.43,473.34c1.08-.11,2.22.07,3.2.55-.46-4.6-.88-9.19-1.2-13.78-1.94-27.32-.27-55.15-2.39-82.44-3.65-47.04-14.33-94.66-37.74-135.49-.93-1.62-3.38-4.27-3.86-5.59-1-2.72,5.21-7.93,6.72-10.58,1.06-1.87,1.88-4.92,2.64-6.94l.6-1.19c.25-.7.99-1.28.6-2.39-.44.33-.76.85-1.19,1.19-3.67,2.95-4.81,7.14-7.63,11.18-1.88,2.69-4.2,4.88-6.06,7.55,27.2,39.95,38.99,91.45,42.96,139.28,2.73,32.86.13,65.64,3.38,98.65Z"/>
  <path class="cls-2" d="M393.58,281.41c5.94,5.68,5.72,17.69-.93,22.82-13.1,10.12-30.69-4.04-23.47-18.68,4.38-8.87,17.34-10.9,24.4-4.15Z"/>
  <path class="cls-2" d="M197.05,281.41c6.38,6.32,5.86,18.14-1.65,23.32-12.46,8.59-28.4-3.61-23.27-17.89,3.58-9.98,17.65-12.62,24.91-5.42Z"/>
  <path class="cls-3" d="M272.94,195.02c-1.25,2.78-1.66,5.75-2.83,8.79-1.85,4.83-6.6,4.38-7.17.06-1.12-8.48,3.52-17.44,5.73-25.39,5.17-4.16,7.7-.9,6.8,5.01-.18,1.21-2.3,10.98-2.54,11.53Z"/>
  <path class="cls-3" d="M313.75,181.73c.32-1.05,6.74-2.78,7.2,2.35.29,3.19.28,11.25,0,14.4-.67,7.46-7.2,2.39-7.2-.03,0-3.29-.66-14.58,0-16.73Z"/>
  <path class="cls-5" d="M215.18,245.35c-1.36,1.34-4.12-2.04-4.93-2.57-10.17-6.65-16.24-7.06-26.93-.92-1.44.83-2.7,2.79-4.42,3.34-3.33,1.06-1.71-1.94-.54-3.23,6.83-7.53,20.48-8.77,29.25-4.29,1.37.7,9.54,5.71,7.57,7.66Z"/>
  <path class="cls-7" d="M357.36,253.12c-1.66-1.65,3.64-5.05,4.7-5.75,9.77-6.41,20.91-6.24,30.14,1.08.93.74,5.12,3.96,2.46,4.67-1.92.51-4.23-2.72-5.8-3.73-7.05-4.51-13.52-5.25-21.35-1.93-2.04.86-9.17,6.65-10.16,5.66Z"/>
  <path class="cls-3" d="M299.41,199.95c-.14.22-3.18,1.3-3.9,1.27-.92-.04-.77-.8-1.37-1.22-.33-.23-1.3.02-1.3-.05v-10.45c0-.24.62-4.33.71-4.66.87-3.16,5.86-1.18,5.86,1.08,0,2.01.37,13.44,0,14.04Z"/>
  <path class="cls-5" d="M491.17,204.73c-.24.32-1.64,6.35-2.11,7.77-.19.56.26,1.25.12,1.66-.17.54-2,1.18-2.19,1.32-.44.33-.76.85-1.19,1.19-1.28-3.76,2.35-7.12,2.41-10.91.28-.69.99-.33,1.17-.44.56-.32,1.15-.51,1.79-.6Z"/>
  <path class="cls-5" d="M94.51,324.21c-.46,1.81,1.05,1.01,1.19,1.19.15.2-.07,2.29,0,2.99l-.59.3.59.3c.11,2.56,0,3.84-.6,6.57-2.45.54-.21-2.94-1.79-4.18.31-2.82.85-4.81,1.19-7.17Z"/>
  <path class="cls-5" d="M124.98,164.11c-.03,1.24-.59,2.19-.6,2.39-1.83.27-.94-.43-1.19-1.19.54-.48.62-1.49,1.79-1.19Z"/>
  <path class="cls-5" d="M123.19,165.31c-.27.24-.86.36-1.19.6.14-.93.52-1.42.6-1.79.67.16.46.76.6,1.19Z"/>
  <path class="cls-5" d="M93.92,346.91c-.13,1.16-.54,2.42-.6,2.99-1.04-1.01-1.14-3.57.6-2.99Z"/>
  <path class="cls-5" d="M94.51,339.74c-1.41-.53-.09-1.47,0-1.79,1.41.53.09,1.48,0,1.79Z"/>
  <path class="cls-5" d="M125.58,161.72l-.6,1.19c-.01-.07-1.02-.75-.59-1.19.17-.17,1.04.12,1.19,0Z"/>
  <path class="cls-7" d="M95.71,328.99l-.59-.3.59-.3c.02.2,0,.4,0,.6Z"/>
  <path class="cls-5" d="M95.11,319.43c-.1.94-.66,1.96-.6,2.99-.03-.83-2-3.37.6-2.99Z"/>
  <path class="cls-5" d="M492.36,198.76c1.92-.31,1.5,1.16,0,1.79-.03-.51-.09-1.36,0-1.79Z"/>
  <path class="cls-5" d="M492.36,201.15c.01.07.86.47.59,1.19-.34.07-1.11-.09-1.19,0l.6-1.19Z"/>
  <path class="cls-6" d="M555.08,620.5c.11.11.84-.07,1.19,0,.22.56-.59,1.09-.59,1.19l-.6-1.19Z"/>
  <path class="cls-5" d="M485.79,219.07l.6-1.19c-.2.55-.5.94-.6,1.19Z"/>
  <path class="cls-6" d="M25.22,86.45l.59.3c.24,1.89-1.08.28-1.19.29.19-.21.4-.39.6-.6Z"/>
  <rect class="cls-1" width="610.53" height="610.53"/>
</svg>