<?xml version="1.0" encoding="UTF-8"?>
<svg id="Layer_1" data-name="Layer 1" xmlns="http://www.w3.org/2000/svg" viewBox="0 0 1267.14 284.53">
  <defs>
    <style>
      .cls-1 {
        fill: #e7edf5;
      }
    </style>
  </defs>
  <g>
    <path class="cls-1" d="M252.44,141.62l-33.65,8.76c-29.86,11.4-48.64,40.92-51.9,72.04-6.33-38.99-31.62-70.63-70.66-80.22-3.73-.92-9.22.67-10.85-3.28,35.97-2.92,64.06-28.17,74.79-61.95,1.62-5.09,2.07-10.58,3.35-15.5.49-1.86-.04-4.19,2.68-4.71.49,47.68,41.31,80,86.24,84.85Z"/>
    <g>
      <path class="cls-1" d="M96.16.21v5.38c-79.36,1.87,1.2,121.54-68.73,136.69,9.2,2.56,18.53,6.85,24.26,14.82,12.38,17.22,4.73,67.5,6.69,90.27,1.86,21.5,16.48,32.89,37.77,31.61l-.59,4.11c-2.38,3.26-27.09-.8-31.68-2.16-13.07-3.89-24.07-14.13-25.67-28.21-3.69-32.53,14.21-94.58-25.58-106.4-4.02-1.19-15.23-.86-12.08-5.97,15.21-1.54,30.57-5.21,35.67-21.61,6.87-22.09-.8-62.26,2-86.89C40.18,14.58,60.06.21,76.62.21h19.54Z"/>
      <path class="cls-1" d="M258.51.21c62.77,6.65,31.11,78.54,40.67,118.26,4.05,16.83,21.91,20.57,36.8,21.82v4.01c-10.39.61-21.68,2.77-29,10.75-23.47,25.62,8.49,97.92-23.64,120.47-8.5,5.97-28.12,9.55-38.34,8.95-4.31-.26-6.73-.3-6.03-5.49,59.36,2.17,32.3-75.04,39.66-110.51,2.89-13.92,16.02-23.03,29.06-26.18-13.04-3.15-26.17-12.26-29.06-26.18-7.41-35.69,19.68-112.25-39.67-110.51V.21c6.3.47,13.36-.65,19.54,0Z"/>
    </g>
  </g>
  <g>
    <path class="cls-1" d="M1167.47,42.53v220.69h-78.16l1.93-105.46-53.71,78.34c-2.37.05-4.65-.18-6.81-1.24-8.25-4.04-44.25-65.07-50.87-77.09l-2.87-.02c-2.76.33.96,2.49.96,2.94v102.53h-76.21V42.53h77.18l54.73,78.12,4.56-3.23,52.08-74.89h77.18Z"/>
    <polygon class="cls-1" points="639.89 42.53 639.89 110.89 573.46 110.89 573.46 263.23 495.3 263.23 495.3 110.89 428.86 110.89 428.86 42.53 639.89 42.53"/>
    <polygon class="cls-1" points="1267.14 263.23 1194.84 263.23 1194.84 97.22 1264.2 97.22 1267.14 100.15 1267.14 263.23"/>
    <path class="cls-1" d="M799.2,44.43l-99.79-2.03-88.83,220.83h89.88l12.97-34.89,71.27.89,11.5,34h87.93l-84.94-218.8ZM789.58,143.77c-23.43,8.95-38.17,32.11-40.73,56.53-4.97-30.6-24.81-55.43-55.45-62.95-2.92-.72-7.24.52-8.52-2.57,28.23-2.29,50.27-22.11,58.69-48.61,1.27-3.99,1.62-8.3,2.63-12.16.38-1.46-.03-3.29,2.1-3.7.38,37.41,32.41,62.78,67.68,66.59l-26.41,6.88Z"/>
    <path class="cls-1" d="M1266.79,57.68l-14.42,3.76c-12.8,4.89-20.85,17.54-22.24,30.88-2.71-16.71-13.55-30.27-30.28-34.38-1.6-.39-3.95.29-4.65-1.4,15.42-1.25,27.46-12.07,32.06-26.55.69-2.18.89-4.54,1.44-6.64.21-.8-.02-1.8,1.15-2.02.21,20.43,17.7,34.29,36.96,36.37Z"/>
  </g>
</svg>